<?xml version="1.0" encoding="utf-8"?>
<!-- Generator: Adobe Illustrator 24.0.0, SVG Export Plug-In . SVG Version: 6.00 Build 0)  -->
<svg version="1.1" id="Layer_1" xmlns="http://www.w3.org/2000/svg" xmlns:xlink="http://www.w3.org/1999/xlink" x="0px" y="0px"
	 viewBox="0 0 120 120" style="enable-background:new 0 0 120 120;" xml:space="preserve">
<g>
	<g transform="translate(0.000000,511.000000) scale(0.100000,-0.100000)" fill="#fff">
		<path d="M695.96,5085.02c-13.31-32.73-14.42-40-8.6-51.15c4.16-7.76,21.09-20.85,26.64-20.85c1.11,0,9.15,9.94,17.75,21.82
			l15.82,22.06l-19.98,26.42c-11.1,14.79-20.53,26.67-20.81,26.67C706.51,5109.99,701.51,5098.83,695.96,5085.02z"/>
		<path d="M432.12,5087.69c-5.83-11.15-11.1-24.97-11.66-31.03c-1.11-10.67-0.83-11.4,14.98-24.72l16.37-14.06l14.42,17.45
			c9.99,12.6,13.87,19.15,12.77,22.54c-5.27,15.27-28.85,49.7-34.4,49.7C443.5,5107.56,437.95,5098.59,432.12,5087.69z"/>
		<path d="M747.57,5028.29c-9.99-11.39-17.21-23.27-17.21-29.09c0-5.57,11.93-27.88,23.02-42.91l8.6-11.88l13.31,12.84
			c7.22,7.27,13.31,14.3,13.31,15.51c0,4.85-28.29,64.48-30.52,64.48C756.72,5037.27,751.99,5033.14,747.57,5028.29z"/>
		<path d="M408.54,5033.38c0-1.21-2.49-15.27-5.55-31.27s-5.55-31.27-5.55-33.94s8.87-12.84,20.25-23.28
			c14.98-13.58,23.58-24.24,33.84-41.69l13.59-23.52l7.76,16c4.44,8.96,7.76,20.36,7.76,25.93c0,14.3-15.26,45.57-33.84,69.82
			C429.91,5013.27,408.54,5036.78,408.54,5033.38z"/>
		<path d="M482.89,5028.29c-11.64-11.39-16.09-18.43-16.09-26.42c0-8.49,26.08-56.73,30.52-56.73c6.11,0,16.65,11.88,16.65,18.67
			c0,7.75-19.97,71.03-22.48,71.03C490.67,5034.84,486.77,5031.93,482.89,5028.29z"/>
		<path d="M671.27,4995.56c-3.05-32.49-2.49-43.87,2.77-50.42c9.71-12.37,59.92-65.46,61.87-65.46c3.6,0,8.32,20.85,8.32,36.37
			c0,17.69-8.04,39.51-20.53,56.73c-9.99,13.58-42.45,42.66-47.71,42.66C674.04,5015.45,672.37,5007.93,671.27,4995.56z"/>
		<path d="M568.34,4952.18c-8.6-20.36-14.7-37.58-13.59-38.55c6.66-4.85,36.62-24.24,37.72-24.24c3.88,0,35.51,42.43,34.4,46.06
			c-0.56,2.42-8.32,15.27-16.93,28.85c-10.82,16.73-17.47,24.49-20.81,24.49C585.27,4988.78,580.54,4980.54,568.34,4952.18z"/>
		<path d="M776.4,4930.11c-7.76-13.58-12.21-26.67-18.58-56c-4.44-21.09-9.43-41.22-11.1-44.36c-4.16-9.94-11.1-6.31-15.26,8.49
			c-7.22,24.25-33.29,60.61-53,73.7l-6.1,4.13l4.16-11.4c9.71-27.15,20.25-66.66,23.3-88.97c4.16-27.64,2.21-77.57-3.88-105.7
			c-3.62-16.73-3.34-25.93,3.32-107.88c7.5-88.73,7.5-92.36,7.22-326.54l-0.28-237.08h45.5c24.69,0,45.22,0.24,45.5,0.72
			c0,0.25,2.49,40.25,5.55,88.97c11.66,190.54,8.88,490.91-5.83,657.69c-2.21,24.49-2.21,39.51,0,55.76
			c5.27,37.33,5.83,57.7,2.21,81.7C794.44,4953.62,790.28,4954.83,776.4,4930.11z"/>
		<path d="M396.06,4915.57c2.21-23.03,6.38-42.91,15.26-72.24c6.94-22.3,6.94-34.67,0.28-151.52
			c-5.55-95.75-9.15-365.81-6.66-506.66c1.39-77.34,3.34-142.06,4.44-143.51c1.67-2.42,15.54-3.15,53.54-3.15h51.05v54.06
			c0,29.57,1.95,133.58,4.16,230.79c2.49,97.46,4.44,221.09,4.99,275.15c0.56,97.46,0.56,98.42-6.94,133.33
			c-13.03,61.82-13.03,110.06,0.56,166.06c4.16,18.18,4.72,24.49,2.21,30.55c-2.77,7.52-3.34,7.52-6.94,3.15
			c-9.15-10.67-20.25-33.45-32.73-66.91c-7.22-19.87-14.15-36.37-15.26-37.09c-2.21-1.21-4.16,3.39-16.65,43.64
			c-3.34,10.67-9.15,24.72-13.05,31.03c-8.6,15.04-27.75,33.21-34.68,33.21C394.4,4935.45,394.12,4934.23,396.06,4915.57z"/>
		<path d="M621.34,4896.17c-5.55-8.49-10.27-17.69-10.27-21.09c0-5.57,19.7-39.51,28.85-49.93c4.16-4.85,4.72-4.6,14.42,4.36
			c11.38,10.67,11.64,7.03-3.6,52.13C638.81,4917.02,636.32,4918.23,621.34,4896.17z"/>
		<path d="M546.14,4891.08c-0.83-2.91-3.05-16.48-4.99-30.06c-2.49-19.4-2.49-26.18,0-31.27c5.55-10.42,64.64-76.13,67.42-74.67
			c1.39,0.72,4.99,8.96,8.32,18.18c14.42,41.22-2.21,79.75-46.89,109.58C548.37,4897.38,548.09,4897.38,546.14,4891.08z"/>
		<path d="M657.67,4806.72c-11.38-13.33-20.25-30.55-29.68-57.94c-11.38-32.49-16.93-46.06-19.14-46.06
			c-1.11,0-7.22,11.63-13.87,26.18c-10.27,22.07-22.76,40.97-45.5,68.12c-5.27,6.55-17.19,5.09-14.98-1.7
			c6.66-19.4,21.92-98.67,23.02-118.06c0.83-13.33-0.83-52.6-3.34-87.27c-3.88-52.13-4.99-116.85-6.11-371.4L546.7,3910h58.27h58.27
			l1.67,6.78c0.83,3.64,4.44,56.24,7.76,116.85c4.72,87.51,5.83,144,6.11,273.94c0.28,162.9-0.83,195.39-11.38,316.36
			c-3.88,47.28-3.88,57.7-0.55,90.91c4.16,40.25,4.44,81.45,0.55,93.08l-2.49,7.27L657.67,4806.72z"/>
	</g>
</g>
</svg>
