<?xml version="1.0" encoding="utf-8"?>
<!-- Generator: Adobe Illustrator 24.0.0, SVG Export Plug-In . SVG Version: 6.00 Build 0)  -->
<svg version="1.1" id="Layer_1" xmlns="http://www.w3.org/2000/svg" xmlns:xlink="http://www.w3.org/1999/xlink" x="0px" y="0px"
	 viewBox="0 0 120 120" style="enable-background:new 0 0 120 120;" xml:space="preserve">
<g fill="#fff">
	<path d="M48.53,68.27c0.74-6.88,3.3-13.44,7.41-18.97c4.36-5.88,7.25-12.48,8.57-19.61l0.07-0.35c0.46-2.31,1.22-4.49,2.21-6.53
		c-6.14-1.05-12.64-0.45-18.8,2.15c-5.74,2.42-10.46,6.24-13.94,10.91c-6.11,8.2-14.05,14.95-23.14,19.64
		C1.56,60.32-2.5,71.52,1.59,81.21l0,0.01c4.09,9.68,14.94,14.59,24.91,11.25l0.02-0.01c8.31-2.79,16.96-3.79,25.64-3.22
		C49.05,82.78,47.74,75.58,48.53,68.27z"/>
	<path d="M117.11,58.95c-3.34-7.41-4.97-15.58-4.72-23.65c0.34-11-7.95-20.54-18.89-21.71C82.38,12.4,72.4,20,70.41,30.78
		c-1.49,8.04-4.74,15.47-9.65,22.09c-3.47,4.67-5.63,10.22-6.26,16.03c-0.94,8.72,1.57,17.29,7.08,24.12
		c5.5,6.83,13.34,11.11,22.06,12.05c1.19,0.13,2.38,0.19,3.55,0.19c0,0,0,0,0,0c16.79,0,30.82-12.61,32.62-29.33
		C120.44,70.14,119.5,64.26,117.11,58.95z M111.86,75.09C110.4,88.63,98.3,98.62,84.49,97.13c-6.6-0.71-12.52-3.95-16.69-9.12
		c-4.16-5.17-6.06-11.65-5.35-18.25c0.47-4.4,2.11-8.59,4.73-12.12c5.65-7.61,9.38-16.15,11.1-25.41
		c1.16-6.24,6.6-10.77,12.93-10.77c0.47,0,0.95,0.03,1.44,0.08c6.81,0.73,11.97,6.67,11.75,13.53c-0.29,9.27,1.59,18.66,5.43,27.17
		C111.63,66.25,112.33,70.69,111.86,75.09z"/>
	<path d="M89.52,50.49c-7.1-0.77-13.74,6.67-14.8,16.59C73.64,77,78.54,85.67,85.64,86.44c7.11,0.77,13.74-6.66,14.81-16.58
		C101.52,59.93,96.63,51.25,89.52,50.49z"/>
</g>
</svg>
