<?xml version="1.0" encoding="iso-8859-1"?>
<!-- Generator: Adobe Illustrator 18.0.0, SVG Export Plug-In . SVG Version: 6.00 Build 0)  -->
<!DOCTYPE svg PUBLIC "-//W3C//DTD SVG 1.1//EN" "http://www.w3.org/Graphics/SVG/1.1/DTD/svg11.dtd">
<svg version="1.1" id="Capa_1" xmlns="http://www.w3.org/2000/svg" xmlns:xlink="http://www.w3.org/1999/xlink" x="0px" y="0px"
	 viewBox="0 0 60 60" style="enable-background:new 0 0 60 60;" xml:space="preserve">
<g fill="#fff">
	<path d="M16.5,0C9.607,0,4,5.607,4,12.5v35C4,54.393,9.607,60,16.5,60S29,54.393,29,47.5v-35C29,5.607,23.393,0,16.5,0z M16.5,58
		C10.71,58,6,53.29,6,47.5S10.71,37,16.5,37c2.179,0,4.204,0.668,5.884,1.808c3.51,3.623,3.465,9.885-0.131,13.481
		c-2.804,2.803-7.365,2.805-10.171,0c-1.049-1.049-1.627-2.443-1.627-3.927s0.578-2.878,1.627-3.927
		c0.802-0.802,1.866-1.243,3-1.243c1.133,0,2.198,0.441,3,1.243c1.245,1.245,1.245,3.271,0,4.518c-0.918,0.916-2.413,0.918-3.331,0
		c-0.318-0.318-0.493-0.741-0.493-1.191s0.175-0.873,0.493-1.191c0.391-0.391,0.391-1.023,0-1.414s-1.023-0.391-1.414,0
		c-0.696,0.696-1.079,1.621-1.079,2.605s0.383,1.909,1.079,2.605c1.699,1.697,4.462,1.697,6.159,0c2.024-2.026,2.024-5.321,0-7.346
		c-1.18-1.18-2.747-1.829-4.414-1.829c-1.668,0-3.235,0.649-4.414,1.829c-1.427,1.426-2.213,3.323-2.213,5.341
		s0.786,3.914,2.213,5.341c1.792,1.792,4.146,2.688,6.5,2.688c2.354,0,4.707-0.896,6.499-2.688c1.9-1.9,3.06-4.54,3.268-7.343
		C26.976,46.735,27,47.115,27,47.5C27,53.29,22.29,58,16.5,58z M27,40.742c-0.862-1.335-1.97-2.492-3.261-3.414
		c-0.011-0.011-0.021-0.024-0.032-0.035c-0.041-0.041-0.092-0.059-0.137-0.091C21.557,35.816,19.123,35,16.5,35
		c-4.402,0-8.272,2.293-10.5,5.742V12.5C6,6.71,10.71,2,16.5,2S27,6.71,27,12.5V40.742z"/>
	<path d="M11.413,10.088c-0.503,0.227-0.729,0.818-0.502,1.322c0.226,0.503,0.814,0.727,1.322,0.502
		C13.581,11.307,15.017,11,16.5,11c3.442,0,6.676,1.706,8.647,4.564c0.194,0.281,0.507,0.432,0.824,0.432
		c0.195,0,0.394-0.058,0.567-0.177c0.454-0.313,0.568-0.937,0.255-1.392C24.448,11.029,20.6,9,16.5,9
		C14.731,9,13.021,9.366,11.413,10.088z"/>
	<path d="M16.5,15c-1.769,0-3.479,0.366-5.087,1.088c-0.503,0.227-0.729,0.818-0.502,1.322c0.226,0.502,0.814,0.728,1.322,0.502
		C13.581,17.307,15.017,17,16.5,17c3.442,0,6.676,1.706,8.647,4.564c0.194,0.281,0.507,0.432,0.824,0.432
		c0.195,0,0.394-0.058,0.567-0.177c0.454-0.313,0.568-0.937,0.255-1.392C24.448,17.029,20.6,15,16.5,15z"/>
	<path d="M16.5,21c-1.769,0-3.479,0.366-5.087,1.088c-0.503,0.227-0.729,0.818-0.502,1.322c0.226,0.502,0.814,0.726,1.322,0.502
		C13.581,23.307,15.017,23,16.5,23c3.442,0,6.676,1.706,8.647,4.564c0.194,0.281,0.507,0.432,0.824,0.432
		c0.195,0,0.394-0.058,0.567-0.177c0.454-0.313,0.568-0.937,0.255-1.392C24.448,23.029,20.6,21,16.5,21z"/>
	<path d="M55.97,44.969c0.059-0.971-0.075-1.951-0.435-2.893C54.168,38.504,49.836,36.01,45,36.01c-1.634,0-3.207,0.291-4.631,0.806
		c-0.089,0.018-0.179,0.032-0.264,0.076c-0.033,0.017-0.063,0.039-0.095,0.056c-2.62,1.038-4.678,2.865-5.544,5.128
		c-0.309,0.808-0.46,1.646-0.459,2.481l-0.002,0.002v4.516C34.299,53.013,38.171,57,45,57s10.701-3.987,11-8v-3.602L55.97,44.969z
		 M53.668,42.791c0.248,0.649,0.349,1.314,0.321,1.974l-0.066,0.466c-0.122,0.865-0.495,1.751-1.118,2.561
		c-0.004,0.005-0.009,0.01-0.013,0.016c-0.187,0.241-0.402,0.472-0.634,0.697c-0.123,0.117-0.246,0.235-0.38,0.344
		c-0.072,0.061-0.147,0.121-0.223,0.18c-1.344,1.021-3.137,1.683-5.171,1.889c-0.048,0.005-0.095,0.011-0.144,0.015
		c-0.405,0.036-0.818,0.058-1.24,0.058c-0.418,0-0.828-0.021-1.23-0.057c-0.061-0.005-0.119-0.013-0.179-0.019
		c-2.036-0.21-3.832-0.875-5.173-1.904c-0.078-0.06-0.149-0.124-0.223-0.186c-0.137-0.114-0.265-0.233-0.391-0.354
		c-1.073-1.053-1.677-2.322-1.763-3.587l-0.036-0.402c0.008-0.457,0.085-0.915,0.225-1.367c0.1,1.388,0.723,2.717,1.826,3.833
		c1.581,1.599,3.899,2.398,6.234,2.398c2.326,0,4.669-0.794,6.313-2.383c1.088-1.052,1.601-2.378,1.442-3.734
		c-0.173-1.484-1.131-2.846-2.628-3.734c-1.995-1.187-4.822-1.182-6.72,0.013c-0.962,0.604-1.547,1.517-1.605,2.501
		c-0.057,0.968,0.385,1.882,1.244,2.576c1.5,1.211,3.938,1.21,5.437-0.001c0.429-0.348,0.495-0.978,0.147-1.406
		c-0.349-0.429-0.978-0.496-1.406-0.148c-0.752,0.606-2.17,0.605-2.922-0.001c-0.242-0.195-0.526-0.511-0.503-0.901
		c0.02-0.332,0.265-0.669,0.673-0.926c1.258-0.79,3.292-0.783,4.634,0.013c0.957,0.568,1.563,1.388,1.663,2.248
		c0.086,0.732-0.207,1.446-0.847,2.064c-2.516,2.432-7.339,2.439-9.735,0.016c-0.99-1.001-1.413-2.168-1.225-3.374
		c0.21-1.34,1.172-2.59,2.582-3.388c1.267-0.49,2.694-0.768,4.165-0.768C48.962,38.01,52.607,40.021,53.668,42.791z M45,55
		c-5.229,0-8.332-2.655-8.912-5.398c0.207,0.223,0.44,0.424,0.671,0.627c0.026,0.023,0.049,0.048,0.076,0.071
		c0.203,0.174,0.42,0.335,0.641,0.494c0.11,0.08,0.219,0.159,0.334,0.235c0.196,0.129,0.398,0.251,0.605,0.368
		c0.169,0.096,0.344,0.186,0.522,0.274c0.183,0.09,0.365,0.179,0.555,0.26c0.235,0.101,0.482,0.19,0.732,0.279
		c0.157,0.055,0.311,0.115,0.472,0.164c0.308,0.094,0.632,0.173,0.961,0.247c0.124,0.028,0.242,0.063,0.368,0.087
		c0.376,0.073,0.769,0.127,1.17,0.172c0.092,0.01,0.18,0.029,0.273,0.037c0.493,0.046,1.003,0.073,1.532,0.073
		c0.537,0,1.052-0.027,1.549-0.073c0.038-0.004,0.073-0.011,0.111-0.015c0.468-0.048,0.919-0.114,1.352-0.199
		c0.061-0.012,0.118-0.03,0.179-0.043c0.402-0.085,0.791-0.183,1.161-0.298c0.111-0.034,0.216-0.077,0.326-0.114
		c0.302-0.104,0.598-0.212,0.879-0.334c0.16-0.069,0.312-0.145,0.466-0.22c0.205-0.101,0.406-0.204,0.599-0.315
		c0.194-0.11,0.382-0.226,0.566-0.347c0.12-0.08,0.234-0.162,0.348-0.245c0.221-0.16,0.438-0.323,0.642-0.498
		c0.003-0.003,0.006-0.006,0.01-0.009c0.246-0.212,0.49-0.426,0.709-0.661C53.275,52.394,50.181,55,45,55z"/>
</g>
<g>
</g>
<g>
</g>
<g>
</g>
<g>
</g>
<g>
</g>
<g>
</g>
<g>
</g>
<g>
</g>
<g>
</g>
<g>
</g>
<g>
</g>
<g>
</g>
<g>
</g>
<g>
</g>
<g>
</g>
</svg>
