<?xml version="1.0" encoding="utf-8"?>
<!-- Generator: Adobe Illustrator 24.0.0, SVG Export Plug-In . SVG Version: 6.00 Build 0)  -->
<svg version="1.1" id="Layer_1" xmlns="http://www.w3.org/2000/svg" xmlns:xlink="http://www.w3.org/1999/xlink" x="0px" y="0px"
	 viewBox="0 0 120 120" style="enable-background:new 0 0 120 120;" xml:space="preserve">
<g transform="translate(0.000000,1280.000000) scale(0.100000,-0.100000)" fill="#fff">
	<path d="M651.25,12795.07c-2.06-0.75-4.49-2.15-5.52-3.08c-1.5-1.59-1.96-1.59-4.21-0.47c-1.68,0.93-3.93,1.12-7.57,0.75
		c-7.1-0.84-9.25-1.78-13.65-6.08c-4.3-4.21-5.7-4.49-17.29-3.27l-7.01,0.75l-4.49-3.83c-3.83-3.27-4.67-3.65-6.36-2.8
		c-1.22,0.65-3.65,0.84-6.26,0.37c-5.98-0.84-7.01-0.84-15.33,0l-7.29,0.75l-8.6-8.97c-4.77-4.86-9.25-9.07-10.19-9.35
		c-0.84-0.28-2.24,0-3.18,0.75c-1.5,1.03-1.87,0.93-2.71-0.75c-1.87-3.74-5.8-5.7-11.97-5.98c-6.08-0.37-6.17-0.37-14.3,5.14
		c-4.3,2.99-4.95,3.08-10.47,2.62c-7.85-0.65-9.91,0.28-12.71,5.89c-4.11,7.95-7.76,9.72-22.06,10.75
		c-7.2,0.47-8.88,1.03-17.57,5.42c-8.32,4.21-10.38,4.96-14.3,4.77c-6.36-0.28-12.81-3.93-17.01-9.72c-1.96-2.52-4.49-5.23-5.8-6.08
		c-2.34-1.5-2.62-1.4-7.95,1.4c-7.29,3.74-9.82,3.65-15.52-0.47c-4.49-3.27-4.67-3.27-11.12-2.71c-9.53,0.93-10.84,0.75-14.12-2.43
		c-3.37-3.27-4.95-6.64-7.85-16.45c-2.52-8.88-4.39-10.28-11.78-8.79c-4.77,0.93-5.8,0.84-11.03-1.22c-3.08-1.31-7.57-2.8-9.82-3.37
		c-4.11-1.12-7.95-4.3-11.68-9.81c-0.93-1.4-3.08-3.37-4.67-4.3c-3.93-2.34-5.98-6.08-7.38-13.65l-1.12-6.36l-5.42-2.8
		c-6.17-3.27-8.88-6.64-12.99-16.45c-2.43-5.7-2.99-8.51-3.37-16.26c-0.37-9.07-0.56-9.44-3.55-12.9c-2.34-2.52-3.18-4.39-3.18-6.64
		c0-5.61-3.18-6.26-16.17-3.27c-4.95,1.12-5.8,1.12-8.23-0.37c-5.89-3.46-8.04-4.39-11.87-5.42c-3.18-0.75-4.67-1.78-7.01-5.24
		c-2.52-3.55-4.39-4.95-11.4-8.23c-5.42-2.52-9.44-5.05-11.12-7.1c-4.11-4.96-4.95-5.14-8.79-2.06c-7.2,5.8-9.63,6.17-17.2,2.62
		c-2.99-1.4-6.64-2.34-9.35-2.34c-6.26,0-9.07-1.31-10.66-5.14c-1.59-3.93-4.11-5.61-10.1-7.01c-5.89-1.31-7.85-2.34-11.4-6.08
		c-1.68-1.78-5.23-3.93-8.69-5.14c-6.26-2.34-7.01-3.18-8.04-8.88c-1.03-5.61-3.46-8.23-10.75-12.15
		c-8.51-4.39-10.28-7.1-10.28-15.61c0-6.08,0-6.17-2.9-7.2c-1.68-0.56-3.74-1.03-4.67-1.03c-3.83,0-5.52-3.27-5.52-10.75
		c0-8.04-1.03-10.75-4.67-12.9c-3.74-2.24-6.08-6.54-7.85-14.49c-0.84-3.83-2.8-9.44-4.39-12.53c-4.39-8.69-3.83-13.55,2.34-21.31
		l3.37-4.21l-2.06-1.78c-1.22-0.93-2.8-2.15-3.65-2.8c-5.05-3.65-5.89-10.38-2.24-18.13c2.8-6.08,2.9-6.73,0.47-6.73
		c-5.7,0-14.12-8.41-16.45-16.55c-2.43-8.51-3.55-10.1-9.07-12.71c-5.8-2.71-8.6-5.89-10.1-11.22c-1.31-5.05-0.37-9.72,2.99-13.93
		c1.5-1.87,2.71-4.02,2.71-4.67s-1.68-2.71-3.65-4.49c-4.21-3.83-6.26-9.44-5.33-14.4c0.37-1.78,2.34-5.52,4.39-8.23
		c4.49-5.98,4.39-6.92-1.22-16.64c-3.46-5.98-4.02-7.67-3.93-12.15c0-6.17,2.43-11.12,7.57-15.98c4.21-4.11,7.2-5.7,14.77-7.85
		c5.8-1.68,13.18-5.05,17.57-8.13c4.95-3.46,2.71-8.04-4.95-10.1c-8.69-2.34-11.22-5.05-11.22-11.96c-0.09-4.21-1.4-6.64-5.33-10
		c-3.55-2.9-6.45-11.12-5.42-15.24c0.28-1.31,2.24-4.21,4.11-6.26c2.71-2.99,3.74-4.95,4.21-8.51c1.12-7.38,3.74-12.06,11.22-19.91
		l7.1-7.48v-5.52c0-10.84,5.89-24.02,12.43-28.14c3.65-2.24,14.02-4.77,19.91-4.77c5.14,0,7.38-1.87,7.38-6.08
		c0-3.27,0.19-3.46,5.14-5.33c3.08-1.12,8.79-2.15,14.49-2.52c7.85-0.56,10.28-1.12,14.96-3.55c3.08-1.5,7.2-3.08,9.25-3.37
		c5.33-0.84,12.06,0.94,16.55,4.3c8.32,6.36,8.41,6.36,14.77,5.98c6.73-0.37,7.95-1.31,9.63-8.13c0.84-3.08,2.52-5.61,6.73-10
		c4.86-4.86,6.54-5.98,11.31-7.2c8.04-2.24,10-3.46,12.25-7.57c1.03-2.06,3.18-4.49,4.77-5.42c3.27-1.87,15.33-4.39,21.31-4.39
		c4.11,0,5.42-0.75,12.15-7.01c8.69-8.13,19.07-10.19,26.83-5.24c2.34,1.5,4.58,3.18,4.95,3.74c0.37,0.75,3.55,0.93,10.38,0.47
		c9.53-0.65,9.72-0.65,15.7,2.34c7.01,3.46,11.31,8.04,15.33,16.26c3.55,7.48,5.23,8.88,13.37,11.03c8.6,2.24,11.4,1.59,21.22-5.14
		c4.02-2.8,9.44-6.17,12.15-7.48c2.71-1.4,6.64-4.02,8.69-5.89c3.18-2.9,3.74-3.83,3.46-6.73c-0.28-2.9-0.84-3.55-4.95-5.61
		c-3.27-1.68-5.14-3.46-6.26-5.7c-0.84-1.78-2.9-6.08-4.49-9.53c-3.46-7.48-7.85-11.59-17.95-16.73c-7.95-4.02-8.69-4.77-7.48-7.1
		c1.31-2.43,11.87-10.19,17.95-13.18c4.95-2.43,5.7-2.52,19.63-2.52c16.73,0,22.53,1.31,29.35,6.54l4.21,3.18l5.52-7.67
		c15.42-21.31,21.97-34.59,34.68-70.02c8.79-24.49,10.19-34.49,5.14-37.86c-3.08-1.96-7.76-1.12-20.38,3.83
		c-5.7,2.24-11.87,4.39-13.65,4.77s-4.58,1.31-6.08,2.06c-2.71,1.31-3.65,1.12-13.09-1.59c-16.36-4.67-21.31-8.13-37.02-25.71
		c-11.68-13.18-15.8-16.26-26.45-19.63c-18.7-6.08-30.01-14.86-36.55-28.7c-4.58-9.54-5.52-15.7-3.65-22.25
		c0.84-2.8,2.43-8.88,3.65-13.37c1.31-4.77,3.74-10.94,5.89-14.49c10.28-17.39,12.71-24.49,14.21-41.6
		c1.5-17.39,4.21-22.53,16.64-32.53c3.93-3.18,11.03-9.72,15.7-14.49c9.25-9.25,12.53-11.78,12.53-9.25c0,0.75,1.4,4.21,3.18,7.67
		c1.78,3.55,3.46,8.23,3.83,10.56c1.59,10,5.89,15.89,22.06,29.73c12.62,10.75,18.88,17.76,22.9,25.8
		c3.74,7.48,4.02,11.5,1.31,18.32c-2.62,6.73-2.43,9.44,1.22,13.83c5.52,6.64,11.78,17.57,12.9,22.43
		c0.75,3.83,0.65,5.89-0.47,10.47c-2.52,9.82-10.66,22.06-18.6,27.86c-6.82,5.05-7.57,6.17-6.26,8.6
		c2.43,4.58,21.22,10.75,28.04,9.25c6.92-1.59,21.13-8.97,24.12-12.62c3.74-4.49,4.58-7.95,6.73-27.95
		c4.77-44.12,23.37-168.64,28.51-191.16c0.93-3.83,1.4-10,1.22-16.83c-0.28-21.78,5.52-30.1,26.92-38.89
		c8.88-3.55,14.58-4.3,23.28-2.9c4.49,0.75,4.77,0.65,8.79-2.8c3.74-3.18,12.71-8.23,35.99-20.29c7.1-3.74,7.76-3.83,15.89-3.74
		c7.38,0.09,9.72,0.56,17.39,3.37c12.53,4.77,15.7,5.05,25.24,2.62c10.75-2.8,18.51-2.24,28.32,1.87c5.42,2.24,8.04,3.93,10.28,6.73
		c3.37,4.21,3.74,4.21,13.27,0.65c12.06-4.49,28.42-3.08,41.5,3.46c7.48,3.74,11.97,8.32,15.98,16.27
		c3.74,7.38,5.42,14.96,7.01,31.69c0.75,7.67,1.96,18.04,2.71,23.09c0.84,5.05,2.15,15.8,2.9,23.74
		c3.08,29.54,5.89,41.04,12.99,51.69c4.11,6.26,5.7,7.67,13.46,12.34c4.67,2.8,6.45,4.49,7.01,6.54c0.47,1.59,1.4,3.93,1.96,5.24
		c1.4,2.71,0.47,4.21-4.49,8.13c-3.37,2.62-6.45,2.62-10,0c-2.06-1.59-4.49-2.15-9.25-2.43c-3.65-0.19-6.54,0-6.54,0.47
		c0,2.43,5.89,46.37,7.57,55.9c5.42,31.78,16.64,78.99,20.85,88.06c3.83,7.95,9.53,14.4,15.98,18.13c6.08,3.46,10.1,3.46,15.7-0.09
		c2.34-1.5,7.67-4.49,11.68-6.54c9.44-4.95,16.45-5.42,24.68-1.68c6.54,2.99,14.86,9.07,17.95,13.09c3.27,4.39,10,16.17,12.71,22.25
		c3.55,8.04,6.08,10.94,14.02,15.52c9.07,5.23,12.15,8.6,12.15,13.37c0,6.26-5.23,9.54-16.73,10.19
		c-12.43,0.65-28.98-4.3-37.2-11.12c-2.43-1.96-5.42-3.65-6.64-3.65c-1.12,0-3.83,1.59-6.08,3.65c-5.23,4.77-7.76,5.23-14.21,2.8
		c-7.48-2.8-11.22-6.92-12.62-13.65c-0.65-2.99-1.5-6.36-1.96-7.57c-2.15-5.42-13.83-7.85-18.98-3.83c-2.06,1.68-2.43,2.62-2.43,7.1
		c0,4.11,1.03,7.76,4.58,16.55c2.43,6.26,4.77,12.99,5.14,15.05c0.37,2.06,1.5,5.23,2.43,7.01c0.93,1.78,2.06,4.95,2.43,7.01
		c0.84,3.55,1.12,3.74,7.38,6.08c8.69,3.27,11.4,5.14,12.81,9.07l1.12,3.18l4.77-0.75c2.52-0.37,7.67-0.75,11.22-0.75
		c12.06,0,17.29,5.05,26.17,25.15c2.52,5.61,6.08,12.53,7.95,15.42c3.55,5.42,9.72,10.38,13.09,10.38c3.93,0,5.52,1.68,6.17,6.54
		c0.75,5.61,2.24,7.1,2.24,2.34c0-5.8,1.96-16.45,3.93-20.94c2.15-5.24,6.45-9.82,15.52-16.64c3.65-2.8,8.69-7.57,11.12-10.66
		c4.95-6.36,10.56-9.54,19.91-11.12c7.1-1.31,8.97-2.15,16.27-7.85c4.21-3.37,6.26-4.3,8.88-4.3c4.3,0,11.97,3.65,15.42,7.38
		c3.27,3.37,6.17,4.39,15.33,5.23c4.95,0.47,7.57,1.22,9.82,2.9c5.98,4.39,6.92,4.58,11.68,2.9c5.05-1.78,7.57-1.96,10.66-0.65
		c1.22,0.47,3.83,1.31,5.98,1.87c5.42,1.31,12.43,7.67,12.25,10.94c-0.19,2.71-0.28,2.71,9.82,5.42c6.54,1.78,10.56,5.05,11.68,9.54
		c0.37,1.87,1.59,3.83,2.62,4.39c9.82,5.52,11.4,6.92,12.43,11.03c1.22,4.86,3.65,7.29,10.28,10.38c7.76,3.65,8.6,4.67,8.6,11.31
		c0,8.97,0.37,9.63,7.85,13.37c15.61,7.85,19.82,11.78,23.65,22.44c1.22,3.46,3.27,7.2,4.49,8.32c1.31,1.21,2.34,3.18,2.34,4.49
		c0,1.21,1.5,5.33,3.27,9.07c4.02,8.32,4.11,12.43,0.93,21.97c-2.8,8.41-2.9,11.5-0.47,16.27c2.71,5.42,2.43,10.84-0.93,15.8
		c-3.27,4.77-3.27,4.86-1.03,10.38c1.5,3.74,1.59,4.58,0.47,7.85c-0.84,2.43-1.31,7.57-1.22,14.96c0,6.26-0.28,12.15-0.65,13.18
		c-0.37,1.03-2.43,4.39-4.58,7.48c-5.52,7.95-6.17,9.25-8.6,19.07c-1.22,4.86-2.9,9.63-3.74,10.66c-0.93,0.94-4.67,3.18-8.41,4.86
		c-6.36,2.9-6.82,3.37-6.82,6.08c0,1.59,0.84,4.49,1.78,6.36c0.93,1.87,2.24,5.23,2.8,7.48c1.12,4.21,0.93,4.02,10.84,8.13
		c4.67,1.87,5.61,3.37,8.51,12.9c1.78,6.08,2.15,8.69,1.68,13.37c-0.56,5.51-0.47,6.08,2.34,9.81c3.65,5.05,3.65,7.85,0,15.05
		c-2.34,4.58-2.71,6.36-2.24,9.07c0.37,1.87,0.84,9.53,1.12,17.01l0.37,13.74l-3.74,9.16c-2.06,5.14-4.67,12.81-5.7,17.11
		c-2.99,11.96-5.61,16.27-16.27,26.74c-5.42,5.33-10.66,11.4-12.15,14.12c-2.24,4.11-3.65,5.42-9.35,8.41
		c-5.8,3.18-6.92,4.21-8.97,8.51c-3.74,7.48-5.98,9.35-13.18,10.94l-2.52,0.56l2.43,5.8c3.74,9.44,3.74,12.34-0.37,19.82
		c-3.37,6.45-3.46,6.64-2.71,13.55c1.5,13.93,1.03,15.98-5.33,23.65c-1.96,2.34-5.05,7.67-6.92,11.69
		c-1.78,4.02-3.74,8.32-4.39,9.53c-3.08,6.26-16.17,12.43-29.17,13.65c-9.35,0.84-9.82,1.12-9.82,4.3c0,1.59-0.56,2.99-1.4,3.27
		c-0.84,0.37-1.4,1.78-1.4,3.74c0,2.71-0.28,3.18-2.24,3.18c-1.31,0-2.62,0.47-2.99,1.03c-0.47,0.75-0.93,0.56-1.5-0.47
		c-0.56-0.93-2.06-1.5-4.11-1.5c-2.71,0-4.3,1.03-9.63,5.98c-3.46,3.27-8.79,7.1-11.68,8.51c-4.11,1.96-6.45,3.93-9.72,8.23
		c-7.76,10.19-7.48,10-18.51,10h-9.72l-3.74,3.37c-4.02,3.65-8.97,5.23-13.46,4.39c-3.74-0.75-8.04-2.9-8.04-4.02
		c0-1.96-1.78-0.84-3.65,2.24c-2.62,4.21-3.83,4.49-9.16,2.43c-2.43-1.03-6.17-2.06-8.13-2.34c-2.06-0.37-4.49-1.5-5.52-2.71
		l-1.87-2.15l-4.49,3.08c-7.95,5.33-11.5,4.95-20.28-1.59l-3.93-3.08l-4.02,3.83c-4.21,4.11-3.46,4.02-12.62,1.12
		c-2.52-0.84-3.55-0.65-5.52,0.56c-3.18,2.15-10.84,1.5-16.27-1.31c-2.43-1.31-7.67-2.71-12.99-3.46c-8.41-1.21-8.97-1.4-11.78-4.77
		c-3.65-4.3-4.95-3.83-8.79,2.99c-3.65,6.45-5.33,7.48-10.28,5.98c-3.55-1.12-4.11-1.03-5.23,0.56c-0.75,0.93-1.31,2.71-1.31,3.83
		c0,3.37-3.46,6.82-7.57,7.48c-5.61,0.93-8.04,3.37-9.25,9.16c-1.22,5.89-2.99,7.76-11.12,11.68c-3.27,1.59-7.85,4.77-10.1,7.1
		c-2.34,2.34-6.82,5.42-10,6.92c-6.08,2.9-8.32,4.96-11.59,10.38c-2.43,4.11-8.23,7.48-12.81,7.48c-4.58,0-6.45,1.12-12.62,7.57
		c-4.58,4.95-5.61,5.51-8.88,5.51c-6.36,0-8.04,0.94-9.82,5.24c-2.24,5.14-7.38,8.6-13.93,9.44c-4.11,0.47-5.33,0.19-7.57-1.4
		l-2.71-2.06l-4.86,5.52C661.53,12796.85,658.73,12797.78,651.25,12795.07z"/>
</g>
</svg>
