<?xml version="1.0" encoding="utf-8"?>
<!-- Generator: Adobe Illustrator 24.0.0, SVG Export Plug-In . SVG Version: 6.00 Build 0)  -->
<svg version="1.1" id="Layer_1" xmlns="http://www.w3.org/2000/svg" xmlns:xlink="http://www.w3.org/1999/xlink" x="0px" y="0px"
	 viewBox="0 0 120 120" style="enable-background:new 0 0 120 120;" xml:space="preserve">
<path fill="#fff" d="M112.18,59.97c0.25-0.84,0.39-1.69,0.39-2.55c0-1.32-0.33-2.64-0.95-3.95c0.62-1.31,0.95-2.66,0.95-4.03
	c0-1.31-0.32-2.62-0.93-3.91c0.61-1.3,0.93-2.65,0.93-4.01c0-1.67-0.5-3.33-1.54-5.05C104.39,26.77,83.44,20,60.08,20
	S15.76,26.77,9.07,36.55c-0.99,1.63-1.48,3.29-1.48,4.96c0,1.36,0.33,2.69,0.95,3.98c-0.62,1.3-0.95,2.62-0.95,3.95
	c0,1.37,0.33,2.71,0.96,4.01c-0.63,1.31-0.96,2.64-0.96,3.97c0,0.84,0.13,1.67,0.37,2.48C3.09,63.13,0.6,67.07,0.6,71.64
	c0,13.32,18.61,27.66,59.48,27.66c55.19,0,59.48-21.17,59.48-27.66C119.55,67.14,117.05,63.23,112.18,59.97z M108.53,66.14
	c-0.02,0.14-0.06,0.28-0.1,0.42c-0.03,0.11-0.05,0.23-0.09,0.34c-0.04,0.14-0.11,0.28-0.16,0.42c-0.05,0.12-0.09,0.23-0.14,0.35
	c-0.06,0.14-0.14,0.28-0.22,0.41c-0.07,0.12-0.12,0.24-0.19,0.36c-0.08,0.13-0.18,0.26-0.27,0.4c-0.09,0.12-0.16,0.25-0.26,0.37
	c-0.1,0.13-0.21,0.25-0.31,0.38c-0.11,0.13-0.21,0.26-0.32,0.38c-0.11,0.12-0.24,0.25-0.36,0.37c-0.12,0.13-0.24,0.26-0.38,0.38
	c-0.13,0.12-0.28,0.25-0.41,0.37c-0.14,0.13-0.28,0.25-0.43,0.38c-0.15,0.12-0.32,0.25-0.47,0.37c-0.16,0.12-0.31,0.25-0.47,0.37
	c-0.17,0.12-0.35,0.25-0.52,0.37c-0.17,0.12-0.34,0.24-0.52,0.36c-0.18,0.12-0.38,0.24-0.57,0.36c-0.19,0.12-0.37,0.24-0.56,0.35
	c-0.2,0.12-0.42,0.24-0.64,0.36c-0.2,0.11-0.39,0.23-0.59,0.34c-0.22,0.12-0.46,0.24-0.69,0.36c-0.21,0.11-0.42,0.22-0.64,0.33
	c-0.23,0.11-0.47,0.22-0.71,0.34c-0.23,0.11-0.46,0.22-0.7,0.33c-0.25,0.11-0.51,0.22-0.76,0.33c-0.25,0.11-0.48,0.21-0.74,0.32
	c-0.26,0.11-0.54,0.21-0.81,0.32c-0.26,0.1-0.51,0.21-0.77,0.31c-0.28,0.11-0.57,0.21-0.86,0.31c-0.27,0.1-0.53,0.2-0.81,0.29
	c-0.29,0.1-0.59,0.2-0.89,0.3c-0.28,0.09-0.56,0.19-0.85,0.28c-0.3,0.1-0.61,0.19-0.92,0.28c-0.3,0.09-0.59,0.18-0.9,0.27
	c-0.32,0.09-0.64,0.18-0.96,0.27c-0.31,0.09-0.61,0.17-0.93,0.25c-0.33,0.09-0.66,0.17-1,0.25c-0.14,0.04-0.28,0.07-0.43,0.11
	c1.02-1.07,1.65-2.5,1.65-4.09v-0.18c9.5-2.39,16.65-5.8,20.75-9.78c0,0.09-0.01,0.17-0.02,0.26
	C108.55,65.91,108.55,66.03,108.53,66.14z M60.08,78.58c1.64,0,3.3-0.04,5.01-0.11c0.99,1.77,2.63,3.1,4.61,3.7
	c-0.37,0.03-0.74,0.05-1.11,0.08c-0.3,0.02-0.6,0.05-0.9,0.06c-0.51,0.03-1.03,0.05-1.55,0.08c-0.32,0.02-0.63,0.04-0.94,0.05
	c-0.45,0.02-0.9,0.03-1.35,0.04c-0.4,0.01-0.79,0.03-1.19,0.04c-0.85,0.02-1.71,0.03-2.58,0.03c-27.61,0-48.27-8.97-48.51-17.06
	C19.45,73.16,38.22,78.58,60.08,78.58z M91.31,58.48c7.79-2.31,13.7-5.37,17.28-8.86c-0.19,5.03-8.39,10.37-20.76,13.66v-3.83
	c1.16-0.29,2.28-0.6,3.37-0.93C91.24,58.51,91.27,58.49,91.31,58.48z M87.83,71.25v-3.89c9.5-2.39,16.65-5.8,20.75-9.78
	C108.41,62.6,100.22,67.96,87.83,71.25z M79.35,81c-0.43,0.07-0.87,0.14-1.3,0.2c-0.31,0.05-0.61,0.1-0.92,0.14
	c-0.45,0.07-0.9,0.12-1.36,0.18c0.26-0.14,0.53-0.28,0.77-0.46c0.18-0.13,0.34-0.27,0.5-0.41c0.24-0.2,0.47-0.4,0.69-0.62
	c0.05-0.05,0.11-0.09,0.15-0.14c0.49,0.45,1.06,0.8,1.67,1.06C79.48,80.98,79.42,80.99,79.35,81z M67.17,49.29
	c18.37,0,32.09-5.5,32.09-10.43c0-1.1,0.89-1.98,1.98-1.98c1.1,0,1.98,0.89,1.98,1.98c0,9.35-18.58,14.39-36.06,14.39
	c-1.1,0-1.98-0.89-1.98-1.98C65.18,50.18,66.07,49.29,67.17,49.29z M64.04,74.55c-0.96,0.03-1.89,0.04-2.82,0.05
	c1-0.02,1.96-0.24,2.82-0.65V74.55z M60.94,74.6c-0.29,0-0.58,0.01-0.86,0.01c-24.52,0-43.56-7.08-47.68-14.33
	c-0.01-0.02-0.01-0.03-0.03-0.05c-0.52-0.93-0.8-1.86-0.81-2.78c7.21,7.02,23.57,12.21,43.18,13.03
	C55.8,72.88,58.17,74.55,60.94,74.6z M22.07,56.05c0.23,0.1,0.46,0.2,0.7,0.3c0.32,0.13,0.65,0.26,0.97,0.38
	c0.58,0.22,1.17,0.44,1.77,0.66c0.1,0.04,0.2,0.08,0.31,0.11c6.85,2.39,15.25,4.09,24.52,4.8c0.17,0.01,0.35,0.03,0.53,0.04
	c1.08,0.08,2.16,0.15,3.26,0.2v3.96C29.11,65.3,11.8,56.82,11.55,49.6C14.04,52.01,17.65,54.18,22.07,56.05z M28.35,38.93
	c0-3.28,2.67-5.95,5.95-5.95h5.95c0.7,0,1.36,0.14,1.98,0.36v-0.36c0-3.28,2.67-5.95,5.95-5.95h5.95c3.28,0,5.95,2.67,5.95,5.95
	v5.95c0,3.28-2.67,5.95-5.95,5.95h-5.95c-0.7,0-1.36-0.14-1.98-0.36v0.36c0,3.28-2.67,5.95-5.95,5.95H34.3
	c-3.28,0-5.95-2.67-5.95-5.95V38.93z"/>
</svg>
