<?xml version="1.0" encoding="utf-8"?>
<!-- Generator: Adobe Illustrator 24.0.0, SVG Export Plug-In . SVG Version: 6.00 Build 0)  -->
<svg version="1.1" id="Layer_1" xmlns="http://www.w3.org/2000/svg" xmlns:xlink="http://www.w3.org/1999/xlink" x="0px" y="0px"
	 viewBox="0 0 120 120" style="enable-background:new 0 0 120 120;" xml:space="preserve">
<g>
	<g transform="translate(0.000000,475.000000) scale(0.100000,-0.100000)" fill="#fff">
		<path d="M573.18,4717.66c-24.79-4.77-54.34-24.54-74.6-49.34l-6.2-7.87l-15.02,11.21c-20.02,14.78-36.95,22.16-59.1,25.26
			c-44.8,6.67-92.71-15.25-116.54-53.15l-8.1-12.87H248.1c-42.19,0-47.19-0.48-69.11-6.67c-84.36-23.36-145.37-76.51-169.45-147.05
			c-20.48-60.04-9.29-127.73,29.32-178.73c13.82-18.36,38.85-42.19,56.24-53.86c12.39-8.1,12.39-8.35,15.5-25.75
			c11.21-66.97,77.69-116.54,143.47-106.77c10.49,1.43,25.49,5.48,33.84,8.81c8.1,3.58,17.64,7.63,20.97,9.06
			c5.72,2.38,7.38,1.67,17.88-7.63c11.67-10.24,34.07-22.88,47.42-26.94c38.13-11.21,78.65-5,112.73,16.93l14.3,9.3l11.44-11.68
			c25.03-25.49,53.86-39.33,86.75-41.94c33.84-2.62,70.54,9.76,94.85,31.69c6.67,5.72,12.87,10.49,14.3,10.49
			c1.2,0,10.25-3.81,19.77-8.35c25.51-12.16,50.29-15.25,77.94-9.78c25.03,5.01,45.28,14.54,62.21,29.32
			c11.44,10.01,13.35,10.96,19.07,8.58c3.34-1.43,12.87-5.48,20.97-9.06c48.86-20.26,102.23-9.53,140.38,28.37
			c10.25,10.25,19.79,22.65,24.31,31.46c7.63,15.02,14.78,39.08,14.78,49.34c0,4.29,3.1,7.87,12.87,14.3
			c30.26,20.26,61.96,55.77,76.49,86.27c45.53,94.85,10.96,200.66-85.79,262.15c-19.07,12.39-46,23.6-74.12,31.46
			c-21.93,6.2-26.94,6.67-69.11,6.67h-45.53l-8.1,12.87c-24.31,38.38-74.36,60.78-118.93,53.15c-20.74-3.57-37.65-10.96-56.72-25.26
			L704,4660.44l-6.2,7.87C664.69,4709.31,620.36,4726.72,573.18,4717.66z M558.4,4598.73c13.11-12.16,25.74-43.37,28.12-69.11
			c4.77-50.77-24.79-104.15-70.07-127.03c-22.4-10.96-39.08-14.3-66.96-13.11c-27.64,1.43-45.05,7.15-67.45,22.4
			c-36.22,24.54-46,51.95-22.16,61.96c10.96,4.53,18.11,1.43,33.61-14.78c7.63-7.86,18.11-15.48,26.45-19.54
			c11.92-5.49,16.68-6.44,36.46-6.44c20.97,0,24.08,0.71,38.61,7.86c25.74,12.64,41.94,34.56,47.43,63.64
			c3.34,18.59-0.24,38.13-11.21,57.91c-4.53,8.1-8.1,17.16-8.1,19.79c0,5.96,4.29,14.3,9.3,18.11
			C538.38,4605.16,552.44,4604.21,558.4,4598.73z M888.94,4583.48c15.02-15.02,19.77-71.26,8.58-101.52
			c-11.67-32.18-33.36-57.44-61.96-72.45c-51.71-27.17-112.49-17.64-154.2,23.83c-17.16,16.91-30.75,41.94-28.37,51.48
			c2.38,9.78,11.92,17.16,21.93,17.16c9.3,0,13.59-4.05,27.65-25.97c4.29-6.44,13.11-15.73,19.54-20.74
			c38.86-29.32,96.06-20.5,122.98,18.82c15.73,22.88,20.26,52.43,11.68,76.98c-6.2,17.88-5.96,23.12,2.15,31.23
			C867.98,4591.34,880.61,4591.82,888.94,4583.48z M108.21,4521.27c11.67-5.96,13.11-15.73,5.96-36.7
			c-5.24-15.02-6.2-20.97-5.24-35.99c1.91-31.93,20.97-60.29,49.57-73.65c11.44-5.49,16.21-6.2,36.95-6.2
			c19.31,0.23,25.98,1.19,35.04,5.24c14.07,6.43,31.21,22.16,39.33,35.75c10.49,18.11,28.12,21.93,38.85,8.58
			c7.39-9.29,5.96-19.54-4.29-35.5c-17.4-26.94-47.66-48.14-79.12-56.01c-66.96-16.45-138.23,26.46-156.11,93.42
			c-4.52,16.93-4.52,50.05,0,67.68C77.46,4519.37,90.33,4530.57,108.21,4521.27z M1102.24,4513.17c18.59-20.5,28.6-49.09,28.6-82.7
			c0-61.01-39.56-111.06-100.09-126.31c-30.03-7.63-69.82-1.19-96.53,15.25c-33.6,20.74-44.33,39.32-31.46,54.1
			c3.09,3.57,8.81,6.67,13.82,7.39c7.63,1.19,9.78,0.23,22.17-10.73c16.91-14.54,29.55-20.97,49.09-24.55
			c48.62-9.06,95.8,28.6,99.62,79.12c1.43,21.69-2.62,37.42-15.25,56.49c-11.21,17.16-12.87,25.03-6.67,33.61
			C1074.6,4527.71,1089.85,4526.99,1102.24,4513.17z M696.86,4339.92c8.58-7.15,9.29-14.54,3.81-32.89
			c-7.63-25.26-3.09-55.53,11.68-76.26c35.99-50.77,111.53-48.86,144.42,3.81c12.62,20.26,16.45,23.36,26.69,23.36
			c6.67,0,10.96-1.67,15.48-6.2c9.29-9.29,6.91-22.88-7.63-44.33c-25.02-36.46-63.16-56.72-107.24-56.72
			c-66.48,0-120.36,46.71-130.12,112.73c-3.1,20.74,0,45.76,7.86,64.11C669.69,4346.12,683.76,4351.11,696.86,4339.92z
			 M532.89,4325.14c7.15-6.2,7.63-7.87,8.58-27.89c2.38-38.38-10.49-71.97-37.42-98.91c-26.45-26.46-55.29-38.13-93.67-38.13
			c-37.18,0-68.88,14.05-95.1,42.42c-20.73,22.65-36.22,60.3-30.74,74.83c4.77,12.63,18.11,17.16,31.21,10.24
			c5.49-2.86,7.86-6.67,11.68-19.54c16.45-54.57,72.94-80.31,122.75-55.75c18.82,9.3,34.79,26.22,42.19,45.05
			c4.52,10.96,5.49,18.36,5.72,38.13c0,24.08,0.24,24.79,6.67,30.5C513.83,4333.72,523.61,4333.48,532.89,4325.14z"/>
		<path d="M775.75,4052.26c-36.95-107.24-87.7-244.76-91.99-249.28c-7.86-8.35-20.5-8.1-29.07,0.48l-6.44,6.44l-0.71,113.21
			c-0.23,68.87-1.43,113.21-2.86,113.21c-1.2,0-8.35-2.63-15.73-5.96c-10.01-4.53-17.64-5.96-29.8-5.96H582.7v-143.94
			c0-142.51-0.71-154.68-7.86-159.2c-5-3.34-17.64-1.91-22.88,2.38c-3.57,2.86-21.22,50.05-60.78,162.53l-55.77,158.49l-28.12,1.67
			c-15.73,0.95-31.93,2.62-35.99,4.05c-4.29,1.19-7.86,1.67-7.86,0.95c0-0.72,28.84-84.61,64.35-186.37
			c35.27-101.77,66.97-196.14,70.31-209.72c9.06-36.46,16.45-48.14,37.9-59.34c12.15-6.44,12.62-6.44,67.68-7.15
			c64.59-0.95,74.12,0.71,91.51,16.21c13.35,11.68,18.83,22.88,25.51,53.63c2.86,13.11,31.7,107.96,63.63,210.67
			c32.18,102.72,58.15,186.84,57.67,187.32c-0.48,0.23-14.78,1.2-32.18,1.91l-31.46,1.19L775.75,4052.26z"/>
	</g>
</g>
</svg>
