<?xml version="1.0" encoding="utf-8"?>
<!-- Generator: Adobe Illustrator 24.0.0, SVG Export Plug-In . SVG Version: 6.00 Build 0)  -->
<svg version="1.1" id="Layer_1" xmlns="http://www.w3.org/2000/svg" xmlns:xlink="http://www.w3.org/1999/xlink" x="0px" y="0px"
	 viewBox="0 0 120 120" style="enable-background:new 0 0 120 120;" xml:space="preserve">
<g>
	<g fill="#fff">
		<path d="M113.35,25.5c0.52-0.09,1.04-0.13,1.57-0.13l0,0l0,0c0.54,0,1.07,0.04,1.58,0.13L61.85,2.1
			c-1.68-0.72-3.63-0.49-5.09,0.62L2.51,43.65C2.84,43.55,113.35,25.5,113.35,25.5z"/>
		<path d="M110.2,81.27c3.69,0,7.08,1.32,9.8,3.57V34.88c0-2.4-1.67-4.36-3.86-4.89c-0.39-0.1-0.8-0.14-1.2-0.14
			c-0.28,0-0.55,0.03-0.84,0.07l-108,17.6l-1.84,0.3C1.8,48.22,0,50.33,0,52.79v31.07c2.05-1.64,4.6-2.6,7.36-2.6
			c6.79,0,12.29,5.86,12.29,13.1c0,7.24-5.5,13.1-12.29,13.1c-2.76,0-5.3-0.96-7.36-2.6v9.23c0,2.82,2.32,5.04,5.06,5.04
			c0.28,0,0.55-0.03,0.84-0.07l89.39-14.58c-0.7-1.91-1.07-3.99-1.07-6.16C94.21,88.89,101.37,81.27,110.2,81.27z M59.38,88.26
			c-5.47,0-9.9-4.72-9.9-10.55s4.43-10.55,9.9-10.55s9.9,4.72,9.9,10.55S64.85,88.26,59.38,88.26z M91.14,64.03
			c-1.71,0-3.32-0.46-4.73-1.28c-3.08-1.78-5.17-5.27-5.17-9.27c0-5.83,4.43-10.55,9.9-10.55c3.72,0,6.94,2.17,8.63,5.4
			c0.8,1.53,1.26,3.28,1.26,5.15C101.03,59.31,96.61,64.03,91.14,64.03z"/>
	</g>
</g>
</svg>
