<?xml version="1.0" encoding="iso-8859-1"?>
<!-- Generator: Adobe Illustrator 18.0.0, SVG Export Plug-In . SVG Version: 6.00 Build 0)  -->
<!DOCTYPE svg PUBLIC "-//W3C//DTD SVG 1.1//EN" "http://www.w3.org/Graphics/SVG/1.1/DTD/svg11.dtd">
<svg version="1.1" id="Capa_1" xmlns="http://www.w3.org/2000/svg" xmlns:xlink="http://www.w3.org/1999/xlink" x="0px" y="0px"
	 viewBox="0 0 54.655 54.655" style="enable-background:new 0 0 54.655 54.655;" xml:space="preserve">
<g fill="#fff">
	<path d="M10.981,28.165c-1.654,0-3,1.346-3,3c0,1.654,1.346,3,3,3s3-1.346,3-3C13.981,29.51,12.635,28.165,10.981,28.165z
		 M10.981,32.165c-0.552,0-1-0.448-1-1s0.448-1,1-1s1,0.448,1,1S11.533,32.165,10.981,32.165z"/>
	<path d="M53.833,6.26c-0.624-0.938-1.516-1.62-2.579-1.969c-0.196-0.064-0.335-0.203-0.399-0.401
		c-0.349-1.062-1.03-1.953-1.97-2.578c-1.787-1.185-4.201-1.078-5.873,0.26c-1.266,1.015-1.947,2.521-1.87,4.133
		c0.057,1.191-0.304,2.239-1.015,2.95l-6.153,6.153l-1.104,0.017c-1.709,0.025-3.305,0.693-4.494,1.882
		c-3.861,3.862-8.983,6.245-14.813,6.891c-3.467,0.385-6.729,1.964-9.188,4.446c-5.651,5.707-5.853,15.175-0.448,21.104
		c2.857,3.135,6.759,4.915,10.987,5.013c0.123,0.003,0.245,0.005,0.368,0.005c4.093,0,7.928-1.587,10.832-4.491
		c2.225-2.225,3.693-5.032,4.246-8.12c0.979-5.46,3.747-10.598,8.006-14.856c0.277-0.277,0.527-0.587,0.788-0.976l1.043-1.557
		h-3.055c0.304-0.184,0.596-0.392,0.854-0.65l8.496-8.495c0.71-0.711,1.74-1.064,2.951-1.015c1.624,0.063,3.117-0.604,4.132-1.871
		C54.914,10.462,55.019,8.047,53.833,6.26z M28.39,41.2c-0.48,2.685-1.757,5.125-3.691,7.06c-2.602,2.601-6.032,3.979-9.74,3.901
		c-3.676-0.085-7.069-1.634-9.555-4.361C0.705,42.645,0.88,34.414,5.795,29.451c2.168-2.189,4.93-3.526,7.986-3.865
		c6.286-0.697,11.821-3.278,16.007-7.465c0.476-0.475,1.048-0.829,1.676-1.047l-1.995,6.648l3.512-1.17v1.94v1.672H36.1
		C32.032,30.536,29.375,35.71,28.39,41.2z M52.013,10.883c-0.609,0.761-1.516,1.177-2.476,1.123
		c-1.772-0.082-3.348,0.484-4.461,1.599L36.581,22.1c-0.43,0.431-0.997,0.675-1.6,0.707v-3.03l-2.488,0.83l0.639-2.129l8.409-8.409
		c1.114-1.113,1.683-2.697,1.599-4.46c-0.047-0.965,0.362-1.867,1.122-2.477c0.984-0.789,2.463-0.855,3.516-0.154
		c0.5,0.332,0.867,0.793,1.091,1.332c-1.01,0.243-1.938,0.784-2.641,1.568c-0.369,0.411-0.335,1.044,0.076,1.412
		c0.191,0.172,0.43,0.256,0.668,0.256c0.273,0,0.547-0.112,0.744-0.332c0.583-0.65,1.416-1.033,2.286-1.05
		c0.137-0.003,0.267-0.033,0.385-0.086c0.083,0.037,0.158,0.084,0.245,0.113c0.632,0.207,1.163,0.614,1.536,1.176
		C52.867,8.42,52.801,9.899,52.013,10.883z"/>
	<path d="M26.55,37.392c-0.555-0.104-1.064,0.266-1.16,0.809c-0.187,1.048-0.515,2.07-0.976,3.041
		c-0.237,0.499-0.024,1.095,0.475,1.332c0.139,0.065,0.284,0.097,0.428,0.097c0.374,0,0.733-0.211,0.904-0.571
		c0.537-1.131,0.92-2.324,1.138-3.547C27.456,38.008,27.093,37.489,26.55,37.392z"/>
	<path d="M22.712,43.914c-2.131,2.584-5.253,4.383-8.565,4.936c-0.545,0.091-0.913,0.606-0.822,1.15
		c0.081,0.489,0.505,0.836,0.985,0.836c0.055,0,0.109-0.004,0.165-0.014c3.782-0.631,7.348-2.686,9.78-5.637
		c0.352-0.426,0.291-1.056-0.136-1.407C23.694,43.426,23.062,43.488,22.712,43.914z"/>
</g>
<g>
</g>
<g>
</g>
<g>
</g>
<g>
</g>
<g>
</g>
<g>
</g>
<g>
</g>
<g>
</g>
<g>
</g>
<g>
</g>
<g>
</g>
<g>
</g>
<g>
</g>
<g>
</g>
<g>
</g>
</svg>
