<?xml version="1.0" encoding="utf-8"?>
<!-- Generator: Adobe Illustrator 24.0.0, SVG Export Plug-In . SVG Version: 6.00 Build 0)  -->
<svg version="1.1" id="Layer_1" xmlns="http://www.w3.org/2000/svg" xmlns:xlink="http://www.w3.org/1999/xlink" x="0px" y="0px"
	 viewBox="0 0 120 120" style="enable-background:new 0 0 120 120;" xml:space="preserve">
<g>
	<g transform="translate(0.000000,511.000000) scale(0.100000,-0.100000)" fill="#fff">
		<path d="M335.51,5050.84l1.64-9.83l-9.84,1.64l-9.83,1.64l16.85-16.16c24.58-23.17,24.58-23.42-19.66-53.61
			c-19.2-13.11-48.69-34.88-65.55-47.99c-34.41-27.15-109.33-100.66-133.2-130.63c-53.83-67.65-93.62-147.23-108.6-217.7
			c-21.3-99.02-5.85-216.3,40.96-310.18c58.76-117.98,158.01-197.57,278.57-223.8c28.79-6.09,100.89-8.66,129.45-4.68
			c18.26,2.81,44.48,8.9,46.35,10.77c0.71,0.46-5.85,8.66-14.52,17.79c-66.71,72.1-110.02,169.26-124.06,278.34
			c-5.39,42.37-7.26,88.72-3.75,99.72c6.79,21.3,28.79,41.67,65.55,60.39c76.78,39.56,193.6,62.26,318.37,62.26h50.8l-3.04,13.34
			c-13.81,59.93-49.16,130.63-95.27,191.25c-66.48,87.55-168.31,176.27-284.42,248.14c-15.92,9.84-35.11,22.71-42.85,28.56
			c-9.59,7.26-13.81,9.36-13.81,7.03c0-4.45,0.23-4.45-10.07-0.23C333.87,5061.83,333.87,5061.6,335.51,5050.84z"/>
		<path d="M709.12,4538.17c-152.62-10.07-281.38-48.45-312.04-92.71c-10.07-14.75-11.24-21.53-8.66-57.82
			c6.79-95.04,34.18-176.73,84.51-250.72c114.24-168.08,314.39-224.72,484.11-136.71c138.81,71.87,228.94,221.45,238.07,395.62
			c2.1,40.5-2.58,50.09-34.65,71.39C1081.57,4519.91,888.91,4550.11,709.12,4538.17z M844.19,4524.36
			c156.61-6.55,275.29-33.47,320.01-72.8c12.64-11,16.39-19.9,14.75-33.95c-4.68-43.08-113.54-80.53-274.35-94.81
			c-52.21-4.68-186.11-4.22-237.6,0.93c-163.63,16.16-264.53,54.08-264.53,99.49c0,16.62,21.3,36.99,55.48,52.21
			c59.69,26.92,178.85,46.82,294.48,49.63c14.27,0.46,28.33,0.94,31.6,1.17C787.32,4526.46,814.23,4525.53,844.19,4524.36z"/>
		<path d="M705.61,4494.63c-112.83-9.13-182.36-25.28-208.58-48.22c-13.34-11.71-14.04-20.6-2.58-31.37
			c3.98-3.97,9.84-8.43,12.64-9.83c4.22-2.1,4.68-1.87,3.74,2.1c-2.1,7.96,14.29,21.76,35.59,29.96
			c98.09,37.46,350.45,40.96,470.08,6.32c34.88-10.07,52.44-20.84,55-33.47l1.64-7.72l9.59,7.03c12.88,9.59,15.92,16.85,11.71,27.15
			c-10.53,25.05-84.97,46.58-194.53,56.18C864.1,4495.8,736.04,4497.21,705.61,4494.63z"/>
	</g>
</g>
</svg>
