<?xml version="1.0" encoding="utf-8"?>
<!-- Generator: Adobe Illustrator 24.0.0, SVG Export Plug-In . SVG Version: 6.00 Build 0)  -->
<svg version="1.1" id="Layer_1" xmlns="http://www.w3.org/2000/svg" xmlns:xlink="http://www.w3.org/1999/xlink" x="0px" y="0px"
	 viewBox="0 0 120 120" style="enable-background:new 0 0 120 120;" xml:space="preserve">
<g>
	<g transform="translate(0.000000,411.000000) scale(0.100000,-0.100000)" fill="#fff">
		<path d="M854.71,4005.81c-90.48-21.26-172.64-123.93-226.08-282.57c-14.72-43.27-14.72-40.09,0-43.75
			c6.65-1.95,28.49-8.56,48.21-15.15c176.92-58.67,293.28-154.01,322.02-263.51c6.65-25.18,7.13-72.6,0.94-96.55
			c-9.5-36.66-25.64-68.2-51.77-100.94c-37.75-47.18-109-98.51-182.38-131.51c-14.25-6.6-26.12-12.47-26.12-13.45
			c0-2.21,31.82-15.89,54.38-22.98c45.83-14.91,107.57-19.07,154.59-10.26c130.37,23.95,223.7,120.25,245.55,253.23
			c14.01,85.06,2.61,236.85-27.31,360.06c-47.73,196.03-135.36,331.19-236.05,363.46C909.57,4008.49,874.42,4010.45,854.71,4005.81z
			 M899.83,3909.74c18.05-9.29,40.6-25.18,52.96-36.9c14.96-14.42,7.36-39.6-12.34-39.6c-6.42,0-12.11,2.94-24.22,12.47
			c-8.79,7.08-24.7,17.59-35.62,23.47c-21.61,11.73-27.07,17.59-27.07,28.36c0,10.02,4.04,16.37,12.59,20.04
			C875.37,3921.71,878.45,3920.98,899.83,3909.74z M1010.97,3803.91c16.15-12.96,58.65-107.31,58.65-130.03
			c0-9.78-11.4-21.51-21.13-21.51c-11.63,0-18.53,8.56-27.31,34.22c-10.21,30.06-19.47,50.6-33.01,73.82
			c-13.3,22.49-14.25,31.04-4.27,41.3C992.21,3810.26,1002.18,3810.99,1010.97,3803.91z"/>
		<path d="M289.05,3671.91c-147-15.88-253.62-113.41-283.54-259.83c-6.88-33-7.36-94.84-1.19-127.59
			c26.36-138.84,116.84-230.01,249.59-252.02c31.58-5.13,128.71-5.86,173.35-1.22c209.68,21.51,386.13,90.69,473.99,185.28
			c40.14,43.26,56.28,77.97,58.42,126.62c2.38,53.53-14.25,93.86-58.65,141.53c-56.99,61.1-148.9,111.22-269.77,147.15
			C523.43,3663.6,374.3,3680.95,289.05,3671.91z M354.36,3585.62c8.55-8.8,8.55-21.51,0-30.31c-5.69-5.86-8.79-6.6-32.53-8.31
			c-14.25-1.22-32.53-3.67-40.37-5.86c-7.84-1.95-17.09-3.18-20.42-2.21c-14.01,3.67-19.95,23.71-10.69,35.93
			c5.23,6.84,24.22,12.23,56.05,16.37C333.45,3594.67,347,3592.95,354.36,3585.62z M215.2,3545.05c5.94-5.38,7.6-8.8,7.6-15.89
			c0-8.31-1.9-11-22.8-30.8c-24.93-23.95-38.47-43.75-49.4-71.87c-6.42-16.62-14.25-53.04-14.25-66.73c0-3.42-3.09-9.05-6.88-13.2
			c-9.5-9.53-19.47-9.53-28.97,0c-5.94,6.11-6.88,9.05-6.88,20.29c0,32.51,14.96,81.14,35.14,114.39
			c19.47,32.51,59.36,70.88,73.38,70.88C204.99,3552.14,210.92,3548.95,215.2,3545.05z"/>
	</g>
</g>
</svg>
