<?xml version="1.0" standalone="no"?>
<!DOCTYPE svg PUBLIC "-//W3C//DTD SVG 20010904//EN"
 "http://www.w3.org/TR/2001/REC-SVG-20010904/DTD/svg10.dtd">
<svg version="1.0" xmlns="http://www.w3.org/2000/svg"
 width="800.000000pt" height="1280.000000pt" viewBox="0 0 800.000000 1280.000000"
 preserveAspectRatio="xMidYMid meet">
<metadata>
Created by potrace 1.15, written by Peter Selinger 2001-2017
</metadata>
<g transform="translate(0.000000,1280.000000) scale(0.100000,-0.100000)"
fill="#fff" stroke="none">
<path d="M3368 12149 c-25 -4 -59 -17 -75 -28 -28 -21 -30 -21 -68 -5 -54 22
-122 15 -219 -25 -103 -41 -184 -100 -282 -204 -70 -74 -157 -201 -191 -279
-7 -16 -15 -28 -18 -28 -3 0 -3 6 0 13 19 35 -65 -78 -135 -182 -29 -43 -41
-89 -20 -76 12 8 3 -18 -41 -110 -18 -38 -32 -74 -31 -78 1 -5 -7 -24 -19 -43
-12 -19 -19 -37 -16 -40 3 -3 10 4 17 15 6 12 15 19 20 16 10 -6 22 11 24 34
2 28 89 152 100 141 6 -6 0 -29 -17 -64 -32 -64 -35 -85 -10 -65 15 12 16 12
10 -5 -4 -11 -12 -40 -18 -64 -11 -52 -22 -74 -35 -74 -10 0 -84 -65 -84 -73
0 -9 49 -5 54 4 3 5 15 7 26 4 11 -3 20 0 20 6 0 6 4 11 8 11 11 0 3 -58 -9
-66 -5 -3 -9 -10 -9 -15 0 -6 4 -8 9 -5 5 3 14 -1 21 -9 11 -13 9 -20 -9 -39
-35 -38 -149 -49 -363 -37 -256 15 -362 47 -401 121 -19 35 -19 35 -12 5 17
-82 173 -239 327 -332 39 -23 78 -49 87 -57 9 -8 21 -16 26 -18 6 -2 8 -7 5
-13 -10 -23 -3 -72 15 -98 10 -16 36 -35 57 -44 21 -8 38 -22 38 -30 0 -13 9
-14 58 -7 74 11 148 8 193 -8 l37 -13 -178 -211 c-159 -188 -184 -213 -229
-232 -55 -23 -67 -42 -26 -42 23 0 25 -2 14 -22 -6 -13 -44 -66 -83 -118 -187
-247 -367 -529 -459 -720 -58 -121 -61 -128 -61 -206 l-1 -82 60 -88 c141
-209 299 -387 480 -541 55 -47 177 -163 270 -258 228 -230 307 -282 408 -269
41 6 49 4 45 -7 -3 -8 -15 -45 -27 -84 -13 -38 -32 -94 -43 -123 -17 -44 -18
-57 -9 -81 10 -23 9 -35 -4 -67 -9 -22 -20 -68 -25 -104 -9 -75 -68 -301 -100
-386 -28 -75 -39 -241 -45 -674 -12 -857 -33 -1285 -70 -1405 -8 -28 -15 -64
-15 -81 0 -17 -7 -51 -15 -75 -9 -23 -22 -70 -30 -103 -7 -34 -38 -124 -68
-201 -135 -346 -164 -510 -187 -1075 -6 -140 -16 -270 -22 -287 -9 -25 -9 -47
0 -91 17 -81 15 -109 -10 -170 -20 -48 -21 -58 -10 -108 9 -47 9 -61 -3 -85
-8 -15 -15 -44 -15 -63 0 -19 -4 -46 -10 -60 -6 -17 -6 -44 2 -80 9 -45 8 -63
-6 -102 -9 -28 -16 -80 -16 -124 0 -50 -7 -97 -19 -133 -11 -30 -27 -93 -36
-139 -21 -102 -98 -341 -136 -422 -28 -58 -29 -67 -29 -204 0 -166 8 -189 72
-221 66 -31 329 -64 343 -42 3 6 15 11 26 11 47 0 67 46 95 212 16 92 16 102
-2 190 -27 134 -23 298 11 453 14 66 26 144 25 175 -2 96 46 419 67 452 4 7
11 36 14 63 12 81 26 137 48 186 11 25 25 82 30 127 5 49 16 94 29 114 10 18
29 71 42 118 12 47 44 146 70 220 104 290 130 387 171 640 42 257 62 334 130
498 75 182 122 345 204 707 36 160 76 331 89 380 33 121 138 420 246 695 48
124 102 276 119 339 18 62 38 126 47 142 15 30 60 59 90 59 30 0 97 -82 148
-180 61 -118 108 -192 220 -345 117 -160 292 -453 387 -650 77 -159 111 -253
188 -520 30 -102 61 -180 116 -288 73 -143 76 -154 111 -325 47 -232 88 -354
181 -531 42 -80 109 -211 150 -291 41 -80 81 -155 88 -166 8 -12 25 -50 40
-85 14 -35 38 -80 54 -99 15 -19 56 -89 90 -155 34 -66 71 -129 81 -141 28
-29 26 -36 -21 -73 -89 -72 -101 -140 -45 -262 54 -118 123 -311 170 -473 24
-83 48 -151 52 -153 28 -9 31 14 19 137 -7 69 -16 161 -20 205 l-6 80 27 -39
c50 -72 113 -245 134 -371 25 -141 38 -175 78 -204 104 -74 279 -85 410 -26
76 35 86 64 72 198 -16 147 -40 188 -140 248 -137 82 -191 152 -260 340 -17
46 -43 116 -57 154 -18 48 -27 98 -31 160 -2 50 -11 102 -18 117 -8 15 -14 46
-14 68 0 27 -8 53 -22 73 -17 24 -23 46 -23 88 0 49 -5 64 -39 113 -34 50 -40
67 -45 130 -4 44 -13 83 -25 100 -10 15 -27 78 -37 140 -29 164 -112 504 -154
635 -20 63 -61 176 -90 250 -58 149 -100 282 -109 349 -4 24 -16 62 -27 84
-13 25 -18 49 -14 65 3 15 -2 41 -14 66 -13 30 -29 129 -56 352 -39 327 -67
500 -115 705 -16 69 -40 175 -54 235 -14 61 -42 169 -62 240 -20 72 -48 180
-64 240 -31 123 -131 404 -180 508 -18 37 -34 89 -35 114 -2 27 -11 54 -23 67
-11 11 -42 57 -70 101 -51 81 -51 81 -53 170 -1 50 2 102 6 116 9 35 -11 72
-77 143 -95 102 -101 112 -88 149 12 33 25 220 21 313 0 29 6 84 14 123 8 40
15 97 15 127 0 76 26 199 55 259 13 28 54 86 91 130 128 154 159 217 159 325
0 96 -25 151 -109 239 -92 95 -191 170 -346 261 -114 68 -282 187 -337 239
-13 12 -23 33 -23 46 0 23 1 23 103 -25 56 -26 135 -56 175 -65 76 -19 128
-48 205 -115 25 -22 53 -40 63 -40 9 0 41 -7 69 -16 63 -20 89 -15 135 29 19
18 50 42 68 52 17 11 32 25 32 32 0 8 20 33 43 57 24 24 47 51 50 59 4 10 14
14 27 12 22 -4 27 14 8 33 -9 9 -6 12 14 12 18 0 27 7 31 21 5 18 11 21 35 16
18 -4 37 -1 48 8 17 12 14 13 -26 8 -42 -6 -44 -5 -27 11 15 15 15 19 3 32 -8
8 -21 14 -28 14 -7 0 -38 9 -68 20 l-55 19 48 0 c39 1 52 6 72 29 16 18 20 31
14 39 -7 7 -5 13 3 16 27 11 -15 25 -97 32 -67 5 -92 12 -135 38 -52 31 -81
64 -44 50 10 -4 15 -2 11 3 -4 6 7 9 26 7 28 -4 30 -3 12 7 -11 7 -42 35 -69
63 -27 29 -43 44 -36 34 25 -34 2 -27 -41 13 -24 22 -39 40 -34 40 5 0 -6 15
-23 33 -18 18 -29 37 -25 42 5 4 3 5 -4 2 -6 -4 -24 9 -41 30 -43 55 -142 212
-158 250 -14 32 -14 33 10 33 16 0 44 -21 87 -65 34 -36 66 -65 71 -65 4 0 28
-20 54 -45 25 -25 48 -45 50 -45 3 0 3 18 2 40 -2 22 -5 40 -8 40 -3 0 -23 25
-43 56 -21 31 -32 52 -26 48 7 -4 3 6 -9 23 l-21 30 22 11 c12 6 16 11 10 11
-29 2 -10 21 20 21 17 0 39 5 47 10 11 7 1 10 -35 10 l-50 1 30 13 c28 13 26
14 -48 14 -73 -1 -80 2 -108 28 -22 21 -28 35 -24 51 3 12 1 25 -5 28 -6 3 -7
-1 -4 -9 8 -21 2 -20 -26 4 -13 11 -28 20 -34 20 -15 1 -71 53 -79 74 -4 9
-11 15 -15 12 -21 -13 -51 26 -57 72 -9 67 -51 195 -87 266 -46 92 -99 164
-170 232 -86 83 -131 115 -213 151 -155 70 -230 86 -327 72z m832 -834 c10
-13 9 -15 -9 -15 -12 0 -21 6 -21 15 0 8 4 15 9 15 5 0 14 -7 21 -15z m180
-177 c0 -19 -39 14 -60 49 l-22 38 41 -40 c23 -21 41 -43 41 -47z m-55 12 c10
-11 16 -20 13 -20 -3 0 -13 9 -23 20 -10 11 -16 20 -13 20 3 0 13 -9 23 -20z
m205 -20 c0 -5 -4 -10 -10 -10 -5 0 -10 5 -10 10 0 6 5 10 10 10 6 0 10 -4 10
-10z m-2227 -15 c-3 -9 -8 -14 -10 -11 -3 3 -2 9 2 15 9 16 15 13 8 -4z m2214
-146 l13 -33 -45 44 c-25 25 -41 46 -36 48 5 2 8 11 5 20 -9 30 50 -45 63 -79z
m-2081 -33 c-8 -20 -22 -36 -30 -36 -9 0 -16 2 -16 5 0 19 49 79 58 70 2 -1
-4 -19 -12 -39z m-226 -201 c16 -20 -3 -20 -45 0 l-30 13 31 1 c17 1 37 -6 44
-14z m2515 -319 c15 -8 22 -17 16 -20 -13 -8 -51 11 -51 24 0 13 3 13 35 -4z
m-2549 -11 c15 -11 16 -14 3 -15 -8 0 -24 7 -35 15 -15 11 -16 14 -3 15 8 0
24 -7 35 -15z m-45 -5 c22 -13 25 -30 4 -30 -8 0 -19 9 -25 20 -12 23 -7 25
21 10z m2032 -316 c90 -39 122 -61 72 -50 -45 9 -225 101 -267 137 -65 53 -42
52 37 -1 42 -28 113 -67 158 -86z m-93 -122 c0 -2 -20 13 -45 34 -25 20 -45
41 -45 47 0 6 20 -9 45 -33 25 -24 45 -46 45 -48z m626 -72 c8 0 14 -4 14 -10
0 -5 -21 -10 -47 -10 -43 0 -45 1 -27 15 10 8 25 12 32 10 8 -3 20 -5 28 -5z
m-2180 -325 c-19 -29 -11 -32 24 -8 24 17 24 16 -2 -16 -33 -39 -34 -43 -8
-59 15 -9 26 -10 40 -2 24 13 20 20 56 -105 28 -99 87 -218 145 -292 78 -100
251 -365 269 -410 123 -323 138 -384 112 -477 -6 -21 -21 -50 -35 -65 -13 -14
-30 -37 -37 -51 -11 -21 -14 -22 -19 -8 -5 15 -12 13 -50 -17 -24 -19 -48 -35
-52 -35 -5 0 -33 -20 -63 -44 -29 -25 -71 -53 -92 -64 -22 -11 -50 -32 -64
-47 -31 -34 -78 -55 -124 -55 -42 0 -56 13 -163 154 -41 55 -99 129 -128 165
-68 85 -353 541 -377 604 -37 96 -25 121 131 282 73 75 154 172 215 260 127
180 227 315 233 315 3 0 -2 -11 -11 -25z"/>
<path d="M2505 11639 c-4 -6 -5 -12 -2 -15 2 -3 7 2 10 11 7 17 1 20 -8 4z"/>
<path d="M2439 11563 c-13 -16 -12 -17 4 -4 9 7 17 15 17 17 0 8 -8 3 -21 -13z"/>
<path d="M2254 11018 l-19 -23 23 19 c12 11 22 21 22 23 0 8 -8 2 -26 -19z"/>
<path d="M4606 10795 c4 -8 8 -15 10 -15 2 0 4 7 4 15 0 8 -4 15 -10 15 -5 0
-7 -7 -4 -15z"/>
</g>
</svg>
