<?xml version="1.0" encoding="iso-8859-1"?>
<!-- Generator: Adobe Illustrator 19.0.0, SVG Export Plug-In . SVG Version: 6.00 Build 0)  -->
<svg version="1.1" id="Layer_1" xmlns="http://www.w3.org/2000/svg" xmlns:xlink="http://www.w3.org/1999/xlink" x="0px" y="0px"
	 viewBox="0 0 512 512" style="enable-background:new 0 0 512 512;" xml:space="preserve">
<g>
	<g fill="#fff">
		<path d="M505.854,26.667c-1.911-10.487-10.112-18.688-20.599-20.599C483.898,5.811,451.454,0,407.081,0
			C343.243,0,255,12.143,197.118,70.042c-52.907,52.915-67.567,131.251-69.675,193.135L15.512,311.151
			c-9.771,4.19-15.932,13.978-15.488,24.593c0.444,10.615,7.398,19.857,17.476,23.219l101.632,33.877L153.01,494.49
			c3.362,10.086,12.604,17.041,23.219,17.485c0.35,0.017,0.708,0.026,1.067,0.026c10.197,0,19.473-6.076,23.518-15.514
			l47.974-111.957c62.012-2.133,140.245-16.811,193.101-69.675C539.271,217.464,507.271,34.406,505.854,26.667z M423.789,296.755
			c-51.695,51.712-132.719,62.464-191.701,62.464c-0.102,0-0.205,0-0.299,0L177.287,486.4l-37.922-113.792L25.598,334.686
			l127.164-54.502c-0.034-59.025,10.667-140.245,62.456-192.034c22.835-22.844,51.507-37.385,81.399-46.865
			c12.612,90.189,84.087,161.553,174.285,174.071C461.421,245.265,446.642,273.894,423.789,296.755z M477.498,190.413
			c-81.417-9.865-145.963-74.445-155.878-155.878c29.858-6.596,59.759-8.934,85.461-8.934c42.573,0,73.591,5.649,73.591,5.649
			S495.051,111.061,477.498,190.413z"/>
	</g>
</g>
<g>
	<g fill="#fff">
		<path d="M422.33,51.2c-21.171,0-38.391,17.229-38.391,38.4c0,21.171,17.22,38.4,38.391,38.4c21.171,0,38.391-17.229,38.391-38.4
			C460.722,68.429,443.51,51.2,422.33,51.2z M422.33,102.4c-7.049,0-12.8-5.734-12.8-12.8c0-7.066,5.751-12.8,12.8-12.8
			c7.049,0,12.8,5.734,12.8,12.8C435.13,96.666,429.379,102.4,422.33,102.4z"/>
	</g>
</g>
<g>
</g>
<g>
</g>
<g>
</g>
<g>
</g>
<g>
</g>
<g>
</g>
<g>
</g>
<g>
</g>
<g>
</g>
<g>
</g>
<g>
</g>
<g>
</g>
<g>
</g>
<g>
</g>
<g>
</g>
</svg>
