<?xml version="1.0" standalone="no"?>
<svg version="1.0" xmlns="http://www.w3.org/2000/svg"
 width="960.000000pt" height="1280.000000pt" viewBox="0 0 960.000000 1280.000000"
 preserveAspectRatio="xMidYMid meet">
<g transform="translate(0.000000,1280.000000) scale(0.100000,-0.100000)"
fill="#fff" stroke="none">
<path d="M5912 12195 c-69 -17 -91 -39 -159 -154 -31 -52 -73 -122 -94 -154
-24 -38 -39 -72 -39 -92 0 -26 -6 -34 -35 -48 -64 -31 -73 -103 -15 -127 21
-9 57 -11 118 -6 164 12 205 9 251 -15 39 -20 47 -21 78 -10 31 12 37 11 57
-8 36 -34 71 -27 137 27 32 26 59 55 59 64 0 21 83 48 149 48 44 0 48 -3 119
-77 92 -97 229 -263 341 -412 47 -63 94 -125 104 -138 18 -22 18 -23 0 -29
-104 -38 -243 -110 -356 -186 -99 -67 -114 -71 -317 -79 -255 -10 -338 -39
-486 -171 -123 -109 -167 -124 -304 -107 -91 11 -312 60 -307 68 48 86 61 130
61 201 -1 165 -23 457 -39 510 -8 30 -22 89 -30 132 -11 59 -30 108 -86 215
-84 161 -131 228 -199 282 -97 76 -252 113 -387 91 -145 -23 -239 -67 -332
-154 -191 -181 -248 -404 -175 -690 15 -57 15 -59 -8 -83 -69 -73 32 -288 152
-324 34 -10 42 -19 69 -78 63 -138 78 -234 41 -271 -30 -30 -128 -76 -191 -90
-94 -21 -159 -10 -304 52 -162 70 -215 82 -341 76 -79 -4 -120 -12 -204 -41
-152 -52 -189 -55 -296 -23 -123 36 -263 63 -366 72 l-86 7 13 31 c7 17 27 94
45 171 73 323 168 651 193 667 35 22 212 -4 231 -34 16 -25 2 -31 -33 -14 -39
21 -75 20 -92 0 -12 -15 -8 -22 36 -61 81 -72 91 -77 124 -63 16 6 38 22 50
36 18 21 25 23 42 13 27 -14 77 -4 104 21 11 10 43 24 70 30 28 6 63 15 78 20
15 5 68 6 117 3 97 -6 137 3 159 38 20 33 -2 74 -54 99 -31 15 -46 30 -57 58
-25 62 -209 323 -242 343 -45 28 -129 24 -265 -11 -64 -16 -174 -41 -245 -54
-226 -43 -352 -130 -460 -317 -77 -134 -107 -177 -200 -289 -169 -204 -255
-361 -340 -620 -69 -211 -99 -353 -86 -402 24 -85 112 -149 348 -252 53 -23
142 -74 197 -113 296 -210 575 -281 873 -223 177 34 236 24 265 -48 8 -21 25
-85 37 -142 32 -151 78 -274 186 -503 95 -201 144 -293 215 -397 20 -31 68
-114 106 -185 39 -72 88 -158 111 -193 61 -94 70 -150 42 -270 -17 -73 -21
-112 -16 -162 19 -198 20 -181 -9 -235 -73 -134 -94 -186 -109 -260 -32 -168
-48 -229 -76 -299 -32 -77 -60 -210 -60 -285 0 -25 -9 -89 -20 -141 -11 -52
-24 -120 -29 -151 -5 -32 -14 -67 -21 -79 -6 -12 -13 -48 -15 -80 -2 -32 -22
-124 -44 -205 -80 -292 -106 -492 -98 -758 10 -332 84 -599 210 -756 29 -36
57 -72 61 -80 5 -7 12 -79 17 -160 6 -105 15 -172 33 -239 31 -111 33 -187 10
-417 -18 -192 -20 -490 -4 -635 6 -57 23 -165 36 -240 48 -264 54 -296 63
-385 6 -49 15 -174 22 -276 9 -161 9 -199 -5 -288 -27 -169 -109 -361 -216
-506 -148 -201 -239 -345 -246 -391 -5 -34 -3 -49 10 -63 9 -10 16 -23 16 -29
0 -6 9 -16 20 -22 11 -6 18 -15 15 -20 -7 -11 23 -40 42 -40 9 0 27 -12 40
-26 19 -21 30 -25 53 -20 24 4 35 -1 60 -26 28 -28 35 -30 77 -24 56 7 106 44
133 96 11 22 31 47 45 56 14 9 42 42 63 73 35 52 48 88 97 263 16 55 19 59 76
89 71 38 114 84 128 137 6 21 10 141 10 273 -1 380 -4 343 61 644 22 99 50
241 63 315 18 102 38 170 79 275 79 199 92 267 85 429 -7 155 -28 260 -98 488
l-52 169 27 120 c15 66 31 181 36 257 26 362 32 429 46 505 19 104 61 463 75
632 11 136 7 684 -5 704 -14 22 4 29 46 20 56 -13 130 -40 124 -47 -3 -3 3
-17 14 -32 11 -16 20 -33 20 -39 0 -7 11 -23 24 -36 17 -17 38 -68 66 -161 80
-266 131 -388 332 -784 137 -269 205 -427 232 -535 33 -128 84 -236 163 -337
28 -37 49 -78 59 -115 22 -86 65 -167 153 -291 88 -125 79 -96 102 -337 21
-229 52 -336 161 -556 101 -205 100 -202 168 -429 105 -352 127 -453 139 -660
6 -100 14 -149 30 -188 14 -35 21 -75 21 -117 0 -114 16 -162 72 -216 54 -52
60 -67 78 -204 12 -88 56 -192 93 -222 13 -10 29 -32 36 -49 7 -18 26 -45 42
-60 26 -25 38 -29 86 -29 49 0 57 3 79 30 13 17 24 25 24 19 0 -33 83 -33 96
0 3 8 13 12 25 9 12 -4 32 3 49 16 16 11 34 21 39 21 6 0 14 6 18 12 4 7 17
18 28 24 31 17 31 79 1 134 -14 25 -43 79 -64 120 -21 41 -60 107 -85 146 -58
89 -149 271 -176 352 -12 34 -21 84 -21 112 0 33 -14 95 -40 173 -53 160 -60
234 -60 722 -1 902 -20 1004 -236 1322 -94 139 -111 183 -144 379 -21 121 -22
148 -15 444 5 216 3 348 -5 420 -34 318 -123 569 -303 858 -42 68 -77 132 -77
143 0 21 -44 105 -71 135 -11 11 -19 25 -19 31 0 6 -12 34 -26 61 -20 39 -28
73 -34 149 -9 109 -21 169 -45 227 -14 33 -16 70 -14 210 2 154 0 183 -24 291
-32 145 -32 151 -6 251 19 73 20 96 14 294 -8 249 -4 276 60 403 25 48 74 162
111 254 36 92 92 224 124 294 80 174 113 272 170 506 66 270 74 341 66 545 -8
192 -3 213 61 241 21 9 91 23 155 32 215 29 336 72 498 180 94 62 233 195 332
317 43 53 106 121 140 150 138 118 239 222 264 275 22 44 26 63 22 111 -4 52
-11 68 -61 139 -74 105 -258 315 -333 379 -141 123 -236 181 -434 269 -63 28
-162 82 -220 120 -196 128 -281 159 -585 209 -82 14 -181 34 -220 45 -80 23
-81 23 -153 6z m-2091 -11538 c-10 -9 -11 -8 -5 6 3 10 9 15 12 12 3 -3 0 -11
-7 -18z"/>
</g>
</svg>
