<?xml version="1.0" encoding="utf-8"?>
<!-- Generator: Adobe Illustrator 24.0.0, SVG Export Plug-In . SVG Version: 6.00 Build 0)  -->
<svg version="1.1" id="Layer_1" xmlns="http://www.w3.org/2000/svg" xmlns:xlink="http://www.w3.org/1999/xlink" x="0px" y="0px"
	 viewBox="0 0 120 120" style="enable-background:new 0 0 120 120;" xml:space="preserve">
<g transform="translate(0.000000,960.000000) scale(0.100000,-0.100000)" fill="#fff">
	<path d="M482.64,9590.75l-30.22-9.25l-33.49-22.8c-27.28-18.49-38.39-27.26-59.79-47.19c-24.18-22.48-28.1-26.94-48.35-55.32
		c-14.87-20.88-33.81-50.86-58.48-92.94c-19.93-34.12-39.04-66.16-42.47-70.94c-3.27-4.78-10.29-15.62-15.52-23.91
		c-5.39-8.29-17.81-25.51-27.77-38.26c-33.32-42.41-40.84-54.52-49.01-78.12c-6.37-18.33-7.19-22.96-7.51-35.87
		c-0.16-13.55,0.16-15.46,4.41-23.28c5.72-10.04,12.41-14.99,34.47-25.35c23.69-11,39.69-13.55,73.18-11.16l24.5,1.59l27.77-8.77
		c36.92-11.8,63.54-15.14,122.68-15.14h41l1.14-24.23c1.47-33.64,8.66-138.86,10.78-158.95c0.98-9.09,1.47-16.74,1.14-17.06
		c-0.33-0.32-4.41,3.99-9.15,9.72c-19.77,24.23-36.43,40.49-59.46,58.35c-27.44,21.2-47.21,32.04-71.39,39.22
		c-13.89,3.99-17.97,4.46-39.2,4.46c-22.54,0-24.5-0.32-40.02-5.42c-28.26-9.25-50.97-23.44-69.1-43.04
		c-22.05-24.07-27.44-37.62-34.47-85.45c-4.9-32.84-4.9-34.28-3.59-68.55c1.63-37.46,4.9-64.41,9.64-79.39
		c5.55-17.22,20.42-29.49,38.71-32.2c27.44-3.83,69.26,2.39,117.94,17.86c7.35,2.39,13.72,3.99,14.05,3.51
		c1.14-1.12,30.06-60.58,37.08-76.2c3.76-8.29,14.87-34.91,24.83-58.99c35.12-85.61,44.11-103.94,54.89-112.23
		c7.84-5.9,14.7-6.7,30.38-3.83c23.36,4.46,49.17,17.06,70.9,34.28l8.82,7.01l4.25-3.99c18.46-16.58,96.22-26.15,156.33-19.45
		c56.36,6.38,95.23,15.46,121.37,28.38c9.64,4.62,12.74,5.42,24.83,5.74c16.34,0.32,24.01,2.07,30.06,6.7
		c10.78,8.29,13.23,22.16,14.87,85.93c1.47,56.44,4.74,74.93,19.11,109.05c6.86,16.26,21.56,46.55,23.52,48.63
		c0.33,0.32,6.37-1.91,13.23-5.1c46.56-21.2,75.8-29.81,101.61-29.81c19.6,0,23.36,1.59,29.57,12.12
		c6.21,10.84,11.6,40.02,16.34,88.96c5.23,54.36,3.76,86.09-6.37,124.51c-12.74,48.94-33.81,81.63-64.03,98.84
		c-18.13,10.52-28.91,13.71-49.66,15.14c-44.92,3.03-93.93-12.59-148.32-47.19c-42.47-27.1-75.8-53.88-82-66
		c-8.17-15.62-5.06-26.94,14.7-55.8c13.56-19.93,27.61-34.6,51.95-54.52c10.94-8.93,19.77-17.06,19.44-18.01
		c-0.33-0.8-8.98-19.13-19.44-40.65c-10.29-21.52-19.6-40.81-20.42-43.04c-1.47-3.99-1.63-3.99-3.92-0.8
		c-5.06,6.7-33.49,63.29-44.43,88.8c-21.73,50.38-29.4,85.13-41.16,189.4c-3.59,31.09-6.21,56.6-6.04,56.6
		c0.16,0.16,22.38-0.32,49.33-0.96c42.47-1.12,54.07-0.8,87.39,2.07l38.39,3.19l34.3,11.16c39.86,12.91,40.02,13.07,55.38,25.03
		c6.37,5.1,16.99,12.28,23.52,15.94c23.52,13.39,32.51,24.87,35.61,45.44c1.96,12.12,1.8,14.03-2.29,29.65
		c-6.37,25.67-12.74,34.28-75.63,101.23c-12.25,13.23-30.71,33.96-40.84,46.07l-18.3,22.32l-17.64,39.06
		c-34.14,76.52-37.24,82.26-62.07,114.15c-20.09,25.99-24.99,31.09-49.82,52.77c-26.63,23.12-28.59,24.39-58.64,40.33
		c-30.22,16.1-31.85,16.74-62.89,25.03l-31.85,8.45l-39.2,0.8l-39.2,0.96L482.64,9590.75z M478.39,8609.34
		c2.29-16.58,3.92-30.45,3.76-30.77c-1.8-1.59-81.19,113.51-81.19,117.66c0,0.48,4.41,3.67,9.64,6.85
		c14.05,8.45,28.1,20.57,39.69,34.12l10.13,11.96l6.86-54.84C471.04,8664.18,476.11,8625.92,478.39,8609.34z"/>
</g>
</svg>
