<?xml version="1.0" encoding="utf-8"?>
<!-- Generator: Adobe Illustrator 24.0.0, SVG Export Plug-In . SVG Version: 6.00 Build 0)  -->
<svg version="1.1" id="Layer_1" xmlns="http://www.w3.org/2000/svg" xmlns:xlink="http://www.w3.org/1999/xlink" x="0px" y="0px"
	 viewBox="0 0 120 120" style="enable-background:new 0 0 120 120;" xml:space="preserve">
<g fill="#fff">
	<path d="M106.12,62.31c8.22-8.23,8.22-21.61,0-29.83l-4.97,4.97c5.48,5.48,5.48,14.4,0,19.89l-7.46-7.46
		c-9.13-9.13-24.69-8.21-32.5,3.24l-1.64,2.41l48.61,48.38l2.41-1.64c11.35-7.73,12.46-23.27,3.24-32.5L106.12,62.31z"/>
	<path d="M0.94,49.5h54.21l0.23-0.34c3.64-5.34,8.78-9.08,14.68-11C68,28.12,59.14,21.14,49.44,21.14H38.9
		c0-7.76,6.31-14.3,14.06-14.3v-7.03c-11.63,0-21.09,9.7-21.09,21.33H21.32c-5.91,0-11.62,2.38-15.66,6.71
		C1.02,32.82-0.9,39.82,0.4,46.64L0.94,49.5z"/>
	<path d="M7.02,56.53v6.17c0,17.06,11.79,31.87,28.36,36.02v0c0.48-0.12,0.92-0.34,1.39-0.48c-0.8-12.36,3.55-24.83,12.79-34.06
		l4.36-4.36l-3.29-3.29H7.02z"/>
	<path d="M58.89,64.79l-4.36,4.36c-12.07,12.07-14.37,30.72-5.58,45.36l0,0c14.65,8.78,33.53,6.48,45.59-5.58l4.36-4.36L58.89,64.79
		z"/>
</g>
</svg>
