<?xml version="1.0" encoding="iso-8859-1"?>
<!-- Generator: Adobe Illustrator 18.0.0, SVG Export Plug-In . SVG Version: 6.00 Build 0)  -->
<!DOCTYPE svg PUBLIC "-//W3C//DTD SVG 1.1//EN" "http://www.w3.org/Graphics/SVG/1.1/DTD/svg11.dtd">
<svg version="1.1" id="Capa_1" xmlns="http://www.w3.org/2000/svg" xmlns:xlink="http://www.w3.org/1999/xlink" x="0px" y="0px"
	 viewBox="0 0 58.011 58.011" style="enable-background:new 0 0 58.011 58.011;" xml:space="preserve">
<g fill="#fff">
	<path d="M49.862,8.139c-3.105-3.104-6.491-5.576-9.536-6.96c-3.347-1.521-5.985-1.561-7.435-0.11
		c-0.001,0.002-0.003,0.003-0.005,0.005c-4.345,4.347-8.808,11.458-11.37,18.118c-2.309,6.003-2.872,10.947-1.692,14.357
		l-6.407,6.407c-2.13,2.13-5.078,3.249-8.108,3.056c-0.487-0.03-0.982,0.012-1.473,0.124c-1.83,0.418-3.283,1.868-3.703,3.694
		c-0.35,1.523-0.003,3.086,0.953,4.285c0.743,0.934,1.771,1.558,2.913,1.788c-0.026,1.036,0.334,2.275,1.761,3.681
		c0.933,0.918,2.088,1.418,3.267,1.418c0.042,0,0.084,0,0.125-0.001c2.718-0.083,4.846-2.278,4.846-5.055
		c-0.037-3.243,1.05-6.136,3.059-8.145l6.846-6.846c1.276,0.542,2.787,0.82,4.518,0.82c2.907,0,6.416-0.764,10.387-2.291
		c6.661-2.563,13.772-7.024,18.119-11.37c0.001-0.001,0.003-0.003,0.005-0.005C60.148,21.895,55.689,13.967,49.862,8.139z
		 M22.122,36.909l-6.478,6.479c-2.393,2.393-3.687,5.795-3.645,9.615c0,1.632-1.277,2.949-2.907,2.998
		c-0.653,0.045-1.356-0.279-1.929-0.843c-1.333-1.312-1.25-2.159-1.051-2.915l0.337-1.281l-1.324,0.026
		c-0.066,0.002-0.131,0.009-0.126,0.015c-0.919,0-1.775-0.413-2.348-1.133c-0.583-0.731-0.784-1.652-0.568-2.592
		c0.246-1.067,1.129-1.948,2.199-2.193c0.305-0.069,0.609-0.095,0.905-0.077c3.583,0.224,7.109-1.102,9.646-3.638l5.934-5.934
		c0.02,0.03,0.047,0.052,0.067,0.082c0.227,0.322,0.47,0.629,0.745,0.905C21.748,36.593,21.93,36.755,22.122,36.909z M38.091,34.618
		c-6.172,2.375-11.131,2.792-13.96,1.233c-0.181-0.101-0.35-0.21-0.512-0.325c-0.03-0.021-0.064-0.04-0.094-0.062
		c-0.181-0.134-0.348-0.278-0.502-0.429c-0.01-0.01-0.021-0.017-0.031-0.027c-0.003-0.003-0.005-0.006-0.008-0.009
		c-0.195-0.196-0.372-0.42-0.537-0.66c-0.035-0.05-0.067-0.102-0.1-0.153c-0.154-0.241-0.298-0.498-0.423-0.778
		c-0.007-0.015-0.015-0.029-0.022-0.044l-0.045-0.102c-1.2-2.902-0.686-7.601,1.527-13.353c2-5.2,5.191-10.674,8.544-14.779
		c0.046,0.294,0.114,0.602,0.194,0.916c0.023,0.089,0.051,0.181,0.076,0.272c0.071,0.255,0.153,0.515,0.246,0.781
		c0.036,0.103,0.071,0.205,0.11,0.31c0.133,0.356,0.278,0.718,0.448,1.093c1.384,3.044,3.856,6.431,6.96,9.535
		c3.104,3.105,6.491,5.577,9.536,6.961c0.383,0.174,0.754,0.322,1.118,0.457c0.102,0.038,0.201,0.072,0.302,0.107
		c0.285,0.099,0.564,0.186,0.836,0.26c0.078,0.021,0.157,0.046,0.234,0.066c0.302,0.076,0.598,0.14,0.883,0.185
		C48.765,29.427,43.291,32.617,38.091,34.618z M50.327,23.179c-2.832-1.287-6.01-3.615-8.95-6.555
		c-2.939-2.939-5.267-6.117-6.554-8.949c-1.117-2.458-1.311-4.398-0.517-5.192c0.324-0.323,0.837-0.483,1.499-0.483
		c0.962,0,2.237,0.338,3.694,1c2.832,1.287,6.01,3.614,8.949,6.554c6.07,6.071,8.74,12.474,7.071,14.143
		C54.725,24.489,52.785,24.296,50.327,23.179z"/>
	<path d="M47.034,10.968c-2.731-2.731-5.146-4.378-6.689-5.277c-0.826-0.482-1.835-0.353-2.508,0.321
		c-0.674,0.674-0.803,1.683-0.322,2.509c0.899,1.544,2.545,3.957,5.277,6.689c2.732,2.732,5.146,4.378,6.689,5.277
		c0.333,0.194,0.696,0.289,1.054,0.289c0.531,0,1.053-0.208,1.455-0.611c0.674-0.674,0.803-1.682,0.321-2.509
		C51.411,16.113,49.765,13.699,47.034,10.968z M50.487,18.759c-1.441-0.84-3.701-2.382-6.282-4.963
		c-2.581-2.581-4.123-4.841-4.962-6.281l0.095-0.096c1.442,0.84,3.702,2.383,6.282,4.963c2.58,2.58,4.123,4.84,4.963,6.282
		L50.487,18.759z"/>
	<path d="M37.126,18.541c-0.876-0.877-1.673-1.827-2.302-2.749c-0.807-1.181-2.137-1.854-3.585-1.785
		c-1.441,0.062-2.722,0.845-3.425,2.095c-0.677,1.2-1.263,2.416-1.742,3.613c-0.206,0.513,0.043,1.095,0.556,1.301
		c0.514,0.204,1.095-0.045,1.3-0.557c0.447-1.116,0.995-2.252,1.628-3.377c0.362-0.643,1.023-1.045,1.77-1.077
		c0.75-0.036,1.434,0.31,1.848,0.916c0.708,1.036,1.563,2.058,2.54,3.034s1.998,1.831,3.034,2.539
		c0.173,0.118,0.369,0.175,0.563,0.175c0.319,0,0.633-0.152,0.827-0.436c0.312-0.456,0.195-1.078-0.261-1.39
		C38.94,20.204,38.016,19.43,37.126,18.541z"/>
	<path d="M37.508,29.447c-4.955,2.789-9.517,3.638-11.091,2.063c-0.525-0.524-0.79-1.367-0.788-2.505
		c0.001-0.553-0.446-1.001-0.999-1.002c0,0-0.001,0-0.001,0c-0.552,0-0.999,0.446-1,0.999c-0.002,1.688,0.459,3.008,1.374,3.922
		c0.969,0.969,2.335,1.371,3.906,1.37c2.912,0,6.522-1.383,9.581-3.104c0.481-0.271,0.651-0.881,0.381-1.361
		C38.6,29.347,37.991,29.175,37.508,29.447z"/>
</g>
<g>
</g>
<g>
</g>
<g>
</g>
<g>
</g>
<g>
</g>
<g>
</g>
<g>
</g>
<g>
</g>
<g>
</g>
<g>
</g>
<g>
</g>
<g>
</g>
<g>
</g>
<g>
</g>
<g>
</g>
</svg>
