<?xml version="1.0" encoding="utf-8"?>
<!-- Generator: Adobe Illustrator 24.0.0, SVG Export Plug-In . SVG Version: 6.00 Build 0)  -->
<svg version="1.1" id="Layer_1" xmlns="http://www.w3.org/2000/svg" xmlns:xlink="http://www.w3.org/1999/xlink" x="0px" y="0px"
	 viewBox="0 0 120 120" style="enable-background:new 0 0 120 120;" xml:space="preserve">
<g>
	<g fill="#fff">
		<rect x="12.1" y="70.11" width="18.35" height="19.58"/>
	</g>
</g>
<g>
	<g fill="#fff">
		<rect x="89.55" y="70.11" width="18.35" height="19.58"/>
	</g>
</g>
<g>
	<g fill="#fff">
		<rect x="63.73" y="42.95" width="18.35" height="19.58"/>
	</g>
</g>
<g>
	<g fill="#fff">
		<rect x="37.91" y="42.95" width="18.35" height="19.58"/>
	</g>
</g>
<g>
	<g fill="#fff">
		<rect x="37.91" y="70.11" width="18.35" height="19.58"/>
	</g>
</g>
<g>
	<g fill="#fff">
		<rect x="63.73" y="70.11" width="18.35" height="19.58"/>
	</g>
</g>
<g>
	<g fill="#fff">
		<path d="M71.2,10.11c0-1.63,0.32-2.28,0.85-3.36c0.69-1.4,1.64-3.33,1.64-6.75h-7.47c0,1.63-0.32,2.28-0.85,3.36
			c-0.69,1.4-1.64,3.33-1.64,6.75s0.95,5.34,1.64,6.75c0.53,1.08,0.85,1.73,0.85,3.36c0,1.63-0.32,2.28-0.85,3.36
			c-0.69,1.4-1.64,3.33-1.64,6.75h7.47c0-1.63,0.32-2.28,0.85-3.36c0.69-1.4,1.64-3.33,1.64-6.75c0-3.42-0.95-5.34-1.64-6.75
			C71.52,12.39,71.2,11.74,71.2,10.11z"/>
	</g>
</g>
<g>
	<g fill="#fff">
		<path d="M53.78,10.11c0-1.63,0.32-2.28,0.85-3.36c0.69-1.4,1.64-3.33,1.64-6.75H48.8c0,1.63-0.32,2.28-0.85,3.36
			c-0.69,1.4-1.64,3.33-1.64,6.75s0.95,5.34,1.64,6.75c0.53,1.08,0.85,1.73,0.85,3.36c0,1.63-0.32,2.28-0.85,3.36
			c-0.69,1.4-1.64,3.33-1.64,6.75h7.47c0-1.63,0.32-2.28,0.85-3.36c0.69-1.4,1.64-3.33,1.64-6.75c0-3.42-0.95-5.34-1.64-6.75
			C54.1,12.39,53.78,11.74,53.78,10.11z"/>
	</g>
</g>
<g>
	<g fill="#fff">
		<polygon points="0,97.26 7.55,120 112.45,120 120,97.26 		"/>
	</g>
</g>
</svg>
