<?xml version="1.0" encoding="utf-8"?>
<!-- Generator: Adobe Illustrator 24.0.0, SVG Export Plug-In . SVG Version: 6.00 Build 0)  -->
<svg version="1.1" id="Layer_1" xmlns="http://www.w3.org/2000/svg" xmlns:xlink="http://www.w3.org/1999/xlink" x="0px" y="0px"
	 viewBox="0 0 120 120" style="enable-background:new 0 0 120 120;" xml:space="preserve">
<g>
	<g transform="translate(0.000000,511.000000) scale(0.100000,-0.100000)" fill="#fff">
		<path d="M850.67,5098.6c-4.07-11.39-4.6-11.66-17.62-12.47l-13.29-0.82l-20.88-30.37c-26.84-39.04-43.1-58.02-59.64-69.13
			c-17.62-11.93-47.45-40.13-65.34-62.36c-37.96-46.63-64.26-95.17-86.22-159.15c-50.72-148.3-139.1-339.44-221.25-477.72
			c-34.7-58.57-56.12-113.33-67.78-172.97c-6.5-33.62-6.5-96.51,0-120.65c17.08-63.17,57.75-92.45,111.16-80.25
			c36.33,8.4,77.55,35.51,112.25,73.2c99.77,109.26,234.52,356.25,323.18,593.48c34.16,91.37,53.95,159.42,66.97,231
			c6.23,32.8,6.78,91.91,1.36,119.29c-3.26,17.62-2.99,22.24,3.53,64.8l7.32,45.82l-9.76,14.38c-7.32,11.12-12.47,15.72-22.78,20.34
			c-9.76,4.07-16.81,10.03-24.94,20.34c-6.23,8.13-11.39,14.65-11.66,14.65C855,5109.99,852.84,5104.83,850.67,5098.6z
			 M885.64,5073.66l8.95-4.6l-5.96-4.89l-5.96-4.89l5.96-10.03c3.53-5.42,5.69-10.58,4.89-11.39s-6.23,1.09-11.93,4.07
			c-10.57,5.15-10.85,5.15-19.25,0.27c-9.22-5.69-11.39-3.8-11.39,10.57c0,4.89-3.26,10.58-9.49,16.54
			c-5.16,5.16-9.49,10.3-9.49,11.39s4.07,2.17,9.22,2.17c7.86,0,9.76,1.09,12.47,8.95l2.98,8.68l10.03-11.12
			C872.09,5083.15,880.76,5076.09,885.64,5073.66z M791.28,4945.96c1.63-1.9-3.53-11.39-14.09-25.76
			c-38.5-54.22-70.76-115.77-108.99-207.95c-52.87-128.23-106.82-245.35-183.55-399.35c-65.07-130.14-81.61-168.1-98.96-227.74
			c-14.64-49.62-21.69-102.49-15.72-117.67c5.96-15.45,42.02,16.81,80.25,71.58c58.57,84.32,177.04,316.12,270.86,530.04
			c58.57,134.2,111.7,276.82,123.35,331.58c2.71,12.2,5.42,22.24,6.5,22.24s3.26-3.26,5.16-7.05l3.26-7.32l7.32,7.32
			c4.33,3.8,8.41,7.05,9.22,7.05c3.8,0-10.3-53.95-27.65-105.73c-42.83-129.33-124.17-318.02-222.32-516.49
			c-126.35-255.4-201.73-364.66-251.62-364.66c-34.7,0-42.83,50.42-21.42,132.84c17.62,67.77,44.46,134.47,87.57,216.89
			c59.91,114.97,146.68,301.77,199,428.38c45.28,109.53,79.44,174.33,121.74,229.91c8.4,11.12,17.08,22.78,19.25,25.76
			c3.8,5.16,4.07,4.89,6.23-7.59C788.04,4954.91,789.94,4947.58,791.28,4945.96z"/>
	</g>
</g>
</svg>
